<svg width="322" height="117" viewBox="0 0 322 117" fill="none" xmlns="http://www.w3.org/2000/svg">
<rect width="322" height="117" rx="58.5" fill="white" fill-opacity="0.3"/>
<path d="M66.4949 90L77.7121 25.6998H85.7054L74.4882 90H66.4949ZM83.0557 90L94.3171 25.6998H102.31L91.0491 90H83.0557ZM108.891 51.5347H62.9177V44.0713H108.891V51.5347ZM105.534 71.8935H59.6056V64.4742H105.534V71.8935ZM131.767 90H118.96V37.9769C118.96 34.3556 119.666 31.3084 121.079 28.8353C122.522 26.3328 124.539 24.4486 127.13 23.1826C129.75 21.8872 132.856 21.2394 136.448 21.2394C137.625 21.2394 138.759 21.3278 139.848 21.5044C140.938 21.6516 141.998 21.843 143.028 22.0785L142.895 31.6617C142.336 31.5145 141.747 31.4115 141.129 31.3526C140.511 31.2937 139.789 31.2643 138.965 31.2643C137.434 31.2643 136.124 31.5292 135.035 32.0592C133.975 32.5597 133.165 33.3104 132.606 34.3115C132.046 35.3125 131.767 36.5343 131.767 37.9769V90ZM141.306 42.2165V51.2256H111.849V42.2165H141.306ZM168.907 90.8832C165.197 90.8832 161.871 90.2944 158.926 89.1168C155.982 87.9097 153.48 86.2462 151.419 84.1264C149.387 82.0066 147.827 79.5483 146.738 76.7513C145.648 73.925 145.104 70.9219 145.104 67.7422V65.9758C145.104 62.3545 145.619 59.0423 146.649 56.0393C147.68 53.0362 149.152 50.4307 151.066 48.2225C153.009 46.0144 155.364 44.3216 158.131 43.1439C160.899 41.9368 164.02 41.3332 167.494 41.3332C170.88 41.3332 173.883 41.8926 176.503 43.0114C179.123 44.1302 181.317 45.72 183.083 47.7809C184.879 49.8418 186.233 52.3149 187.146 55.2002C188.059 58.056 188.515 61.2357 188.515 64.7392V70.0387H150.536V61.5595H176.017V60.588C176.017 58.8215 175.693 57.2464 175.046 55.8626C174.427 54.4494 173.485 53.3306 172.219 52.5063C170.953 51.6819 169.334 51.2697 167.361 51.2697C165.683 51.2697 164.241 51.6378 163.033 52.3738C161.826 53.1098 160.84 54.1403 160.075 55.4652C159.339 56.79 158.779 58.3504 158.396 60.1463C158.043 61.9128 157.866 63.856 157.866 65.9758V67.7422C157.866 69.6559 158.131 71.4224 158.661 73.0417C159.221 74.661 160.001 76.0595 161.002 77.2371C162.032 78.4148 163.269 79.3275 164.712 79.9752C166.184 80.6229 167.847 80.9467 169.702 80.9467C171.998 80.9467 174.133 80.5051 176.105 79.6219C178.108 78.7092 179.83 77.3402 181.272 75.5148L187.455 82.2275C186.454 83.6701 185.085 85.0538 183.348 86.3787C181.64 87.7036 179.58 88.7929 177.165 89.6467C174.751 90.4711 171.998 90.8832 168.907 90.8832ZM221.548 79.2244V57.9382C221.548 56.4073 221.298 55.0971 220.798 54.0078C220.297 52.889 219.517 52.0205 218.457 51.4022C217.427 50.784 216.087 50.4748 214.438 50.4748C213.025 50.4748 211.803 50.7251 210.773 51.2256C209.742 51.6966 208.947 52.3885 208.388 53.3012C207.829 54.1844 207.549 55.2296 207.549 56.4367H194.83C194.83 54.4053 195.301 52.4768 196.243 50.6515C197.186 48.8261 198.555 47.2215 200.351 45.8378C202.146 44.4246 204.281 43.3205 206.754 42.5256C209.257 41.7307 212.054 41.3332 215.145 41.3332C218.854 41.3332 222.152 41.9515 225.037 43.1881C227.922 44.4246 230.189 46.2794 231.838 48.7525C233.516 51.2256 234.355 54.3169 234.355 58.0266V78.4737C234.355 81.094 234.517 83.2432 234.841 84.9213C235.165 86.5701 235.636 88.0127 236.254 89.2492V90H223.403C222.785 88.7046 222.314 87.0853 221.99 85.1422C221.696 83.1696 221.548 81.197 221.548 79.2244ZM223.227 60.8971L223.315 68.0955H216.205C214.527 68.0955 213.069 68.2869 211.833 68.6697C210.596 69.0524 209.58 69.5971 208.786 70.3037C207.991 70.9808 207.402 71.7757 207.019 72.6884C206.666 73.6011 206.489 74.6021 206.489 75.6914C206.489 76.7808 206.739 77.7671 207.24 78.6503C207.74 79.5041 208.462 80.1813 209.404 80.6818C210.346 81.1528 211.45 81.3884 212.716 81.3884C214.63 81.3884 216.293 81.0056 217.706 80.2402C219.119 79.4747 220.209 78.5325 220.974 77.4138C221.769 76.295 222.181 75.2351 222.211 74.2341L225.567 79.6219C225.096 80.829 224.448 82.0802 223.624 83.3757C222.829 84.6711 221.813 85.8929 220.577 87.0411C219.34 88.1599 217.853 89.0873 216.116 89.8234C214.379 90.5299 212.318 90.8832 209.934 90.8832C206.901 90.8832 204.148 90.2797 201.675 89.0726C199.232 87.8361 197.289 86.1432 195.846 83.9939C194.433 81.8153 193.726 79.3422 193.726 76.5747C193.726 74.0722 194.197 71.8493 195.139 69.9062C196.082 67.9631 197.465 66.3291 199.291 65.0042C201.145 63.6499 203.457 62.6342 206.224 61.957C208.992 61.2504 212.201 60.8971 215.851 60.8971H223.227ZM256.878 52.6388V90H244.159V42.2165H256.127L256.878 52.6388ZM271.275 41.9074L271.054 53.6987C270.436 53.6103 269.685 53.5367 268.802 53.4779C267.948 53.3895 267.168 53.3454 266.461 53.3454C264.665 53.3454 263.105 53.5809 261.78 54.052C260.485 54.4936 259.395 55.156 258.512 56.0393C257.658 56.9225 257.011 57.9971 256.569 59.2631C256.157 60.5291 255.921 61.9717 255.862 63.591L253.301 62.7961C253.301 59.7047 253.61 56.8636 254.228 54.2728C254.847 51.6525 255.745 49.3708 256.922 47.4276C258.129 45.4845 259.601 43.983 261.339 42.9231C263.076 41.8632 265.063 41.3332 267.3 41.3332C268.007 41.3332 268.728 41.3921 269.464 41.5099C270.2 41.5982 270.804 41.7307 271.275 41.9074Z" fill="white"/>
</svg>
