<svg width="388" height="80" viewBox="0 0 388 80" fill="none" xmlns="http://www.w3.org/2000/svg">
<rect width="388" height="80" rx="40" fill="white" fill-opacity="0.3"/>
<path d="M56.2964 49.0688L54.7445 60.1182H47.9162L49.4681 49.0688H43.3227L41.7708 60.1182H34.9426L36.4944 49.0688H30.7835L31.7146 42.4268H37.4876L38.2946 36.2813H32.5837L33.5148 29.5772H39.2257L40.7776 18.7141H48.0404L46.4885 29.5772H51.7649L53.3168 18.7141H60.5175L59.0277 29.5772H65.4214L64.4903 36.2813H58.0965L57.2275 42.4268H63.6212L62.6901 49.0688H56.2964ZM51.2683 36.2813H45.1229L44.3159 42.4268H50.3992L51.2683 36.2813ZM98.9863 60.1182H90.1964V24.4129C90.1964 21.9275 90.6813 19.8361 91.6513 18.1387C92.6414 16.4211 94.0256 15.1279 95.8037 14.259C97.6021 13.3699 99.734 12.9254 102.199 12.9254C103.007 12.9254 103.785 12.986 104.533 13.1072C105.281 13.2083 106.008 13.3396 106.715 13.5013L106.624 20.0785C106.241 19.9775 105.836 19.9068 105.412 19.8664C104.988 19.826 104.493 19.8057 103.927 19.8057C102.876 19.8057 101.977 19.9876 101.229 20.3513C100.502 20.6948 99.9461 21.2101 99.5622 21.8971C99.1783 22.5842 98.9863 23.4228 98.9863 24.4129V60.1182ZM105.533 27.3227V33.5059H85.3165V27.3227H105.533ZM125.205 60.7244C122.658 60.7244 120.375 60.3202 118.354 59.512C116.334 58.6835 114.616 57.5418 113.202 56.0869C111.807 54.632 110.737 52.9448 109.989 51.0251C109.241 49.0853 108.867 47.0242 108.867 44.8419V43.6295C108.867 41.144 109.221 38.8708 109.928 36.8097C110.635 34.7486 111.646 32.9603 112.959 31.4448C114.293 29.9293 115.909 28.7674 117.809 27.9592C119.708 27.1307 121.85 26.7164 124.235 26.7164C126.558 26.7164 128.619 27.1004 130.418 27.8682C132.216 28.6361 133.722 29.7273 134.934 31.1417C136.167 32.5562 137.096 34.2536 137.723 36.2338C138.349 38.1939 138.662 40.3762 138.662 42.7808V46.418H112.596V40.5985H130.084V39.9316C130.084 38.7192 129.862 37.6382 129.418 36.6885C128.993 35.7185 128.347 34.9507 127.478 34.3849C126.609 33.8191 125.498 33.5362 124.144 33.5362C122.992 33.5362 122.002 33.7888 121.173 34.294C120.345 34.7991 119.668 35.5064 119.143 36.4157C118.637 37.325 118.253 38.3959 117.991 39.6285C117.748 40.8409 117.627 42.1746 117.627 43.6295V44.8419C117.627 46.1553 117.809 47.3677 118.173 48.4791C118.557 49.5905 119.092 50.5503 119.779 51.3585C120.486 52.1668 121.335 52.7932 122.325 53.2378C123.335 53.6823 124.477 53.9046 125.75 53.9046C127.326 53.9046 128.791 53.6015 130.145 52.9953C131.519 52.3689 132.701 51.4293 133.691 50.1765L137.935 54.7836C137.248 55.7737 136.308 56.7234 135.116 57.6327C133.944 58.542 132.529 59.2897 130.873 59.8757C129.216 60.4415 127.326 60.7244 125.205 60.7244ZM158.727 60.7244C156.181 60.7244 153.898 60.3202 151.877 59.512C149.857 58.6835 148.139 57.5418 146.725 56.0869C145.33 54.632 144.259 52.9448 143.512 51.0251C142.764 49.0853 142.39 47.0242 142.39 44.8419V43.6295C142.39 41.144 142.744 38.8708 143.451 36.8097C144.158 34.7486 145.169 32.9603 146.482 31.4448C147.816 29.9293 149.432 28.7674 151.332 27.9592C153.231 27.1307 155.373 26.7164 157.758 26.7164C160.081 26.7164 162.142 27.1004 163.941 27.8682C165.739 28.6361 167.245 29.7273 168.457 31.1417C169.69 32.5562 170.619 34.2536 171.246 36.2338C171.872 38.1939 172.185 40.3762 172.185 42.7808V46.418H146.118V40.5985H163.607V39.9316C163.607 38.7192 163.385 37.6382 162.941 36.6885C162.516 35.7185 161.87 34.9507 161.001 34.3849C160.132 33.8191 159.02 33.5362 157.667 33.5362C156.515 33.5362 155.525 33.7888 154.696 34.294C153.868 34.7991 153.191 35.5064 152.665 36.4157C152.16 37.325 151.776 38.3959 151.514 39.6285C151.271 40.8409 151.15 42.1746 151.15 43.6295V44.8419C151.15 46.1553 151.332 47.3677 151.696 48.4791C152.079 49.5905 152.615 50.5503 153.302 51.3585C154.009 52.1668 154.858 52.7932 155.848 53.2378C156.858 53.6823 158 53.9046 159.273 53.9046C160.849 53.9046 162.314 53.6015 163.668 52.9953C165.042 52.3689 166.224 51.4293 167.214 50.1765L171.458 54.7836C170.771 55.7737 169.831 56.7234 168.639 57.6327C167.467 58.542 166.052 59.2897 164.395 59.8757C162.739 60.4415 160.849 60.7244 158.727 60.7244ZM186.37 13.5619V60.1182H177.611V13.5619H186.37ZM225.107 27.3227V33.5059H206.011V27.3227H225.107ZM210.74 19.2299H219.469V50.2371C219.469 51.1868 219.59 51.9142 219.833 52.4194C220.095 52.9246 220.479 53.2782 220.984 53.4803C221.49 53.6621 222.126 53.753 222.894 53.753C223.44 53.753 223.924 53.7328 224.349 53.6924C224.793 53.6318 225.167 53.5712 225.47 53.5106L225.501 59.9363C224.753 60.1788 223.945 60.3707 223.076 60.5122C222.207 60.6536 221.247 60.7244 220.196 60.7244C218.277 60.7244 216.6 60.4112 215.165 59.7848C213.75 59.1381 212.659 58.1076 211.891 56.6931C211.124 55.2787 210.74 53.4196 210.74 51.1161V19.2299ZM227.895 44.0538V43.4173C227.895 41.0127 228.239 38.8001 228.926 36.7794C229.613 34.7385 230.613 32.9704 231.926 31.4751C233.24 29.9798 234.856 28.8179 236.776 27.9895C238.696 27.1408 240.898 26.7164 243.384 26.7164C245.869 26.7164 248.082 27.1408 250.021 27.9895C251.961 28.8179 253.588 29.9798 254.901 31.4751C256.235 32.9704 257.245 34.7385 257.932 36.7794C258.619 38.8001 258.963 41.0127 258.963 43.4173V44.0538C258.963 46.4382 258.619 48.6508 257.932 50.6917C257.245 52.7124 256.235 54.4805 254.901 55.996C253.588 57.4913 251.971 58.6532 250.052 59.4817C248.132 60.3101 245.93 60.7244 243.444 60.7244C240.959 60.7244 238.746 60.3101 236.806 59.4817C234.887 58.6532 233.26 57.4913 231.926 55.996C230.613 54.4805 229.613 52.7124 228.926 50.6917C228.239 48.6508 227.895 46.4382 227.895 44.0538ZM236.624 43.4173V44.0538C236.624 45.4279 236.746 46.711 236.988 47.9032C237.231 49.0954 237.615 50.1461 238.14 51.0554C238.685 51.9445 239.393 52.6417 240.262 53.1468C241.131 53.652 242.191 53.9046 243.444 53.9046C244.657 53.9046 245.697 53.652 246.566 53.1468C247.435 52.6417 248.132 51.9445 248.658 51.0554C249.183 50.1461 249.567 49.0954 249.809 47.9032C250.072 46.711 250.203 45.4279 250.203 44.0538V43.4173C250.203 42.0837 250.072 40.8308 249.809 39.6589C249.567 38.4667 249.173 37.4159 248.627 36.5066C248.102 35.5771 247.405 34.8497 246.536 34.3243C245.667 33.7989 244.616 33.5362 243.384 33.5362C242.151 33.5362 241.1 33.7989 240.231 34.3243C239.383 34.8497 238.685 35.5771 238.14 36.5066C237.615 37.4159 237.231 38.4667 236.988 39.6589C236.746 40.8308 236.624 42.0837 236.624 43.4173ZM283.726 52.2679V27.3227H292.456V60.1182H284.242L283.726 52.2679ZM284.696 45.539L287.273 45.4784C287.273 47.6607 287.02 49.6915 286.515 51.5707C286.01 53.4297 285.252 55.0463 284.242 56.4203C283.231 57.7742 281.958 58.835 280.422 59.6029C278.887 60.3505 277.078 60.7244 274.997 60.7244C273.401 60.7244 271.926 60.5021 270.572 60.0575C269.238 59.5928 268.086 58.8755 267.116 57.9055C266.167 56.9154 265.419 55.6525 264.873 54.1168C264.348 52.5608 264.085 50.6917 264.085 48.5094V27.3227H272.815V48.57C272.815 49.5399 272.926 50.3583 273.148 51.0251C273.391 51.692 273.724 52.2375 274.148 52.6619C274.573 53.0862 275.068 53.3893 275.633 53.5712C276.219 53.753 276.866 53.844 277.573 53.844C279.372 53.844 280.786 53.4803 281.817 52.7528C282.868 52.0254 283.605 51.0352 284.029 49.7824C284.474 48.5094 284.696 47.0949 284.696 45.539ZM312.672 53.9046C313.743 53.9046 314.693 53.7025 315.522 53.2984C316.35 52.8741 316.997 52.2881 317.461 51.5404C317.946 50.7726 318.199 49.8734 318.219 48.8428H326.433C326.413 51.1464 325.797 53.1974 324.584 54.9958C323.372 56.774 321.745 58.1783 319.704 59.2089C317.663 60.2192 315.38 60.7244 312.854 60.7244C310.308 60.7244 308.086 60.3 306.186 59.4513C304.307 58.6027 302.741 57.4307 301.488 55.9354C300.235 54.4199 299.296 52.6619 298.669 50.6614C298.043 48.6407 297.73 46.4786 297.73 44.1751V43.2961C297.73 40.9723 298.043 38.8102 298.669 36.8097C299.296 34.789 300.235 33.031 301.488 31.5358C302.741 30.0202 304.307 28.8382 306.186 27.9895C308.065 27.1408 310.268 26.7164 312.794 26.7164C315.481 26.7164 317.835 27.2317 319.856 28.2623C321.897 29.2928 323.493 30.7679 324.645 32.6875C325.817 34.587 326.413 36.84 326.433 39.4467H318.219C318.199 38.3555 317.967 37.3654 317.522 36.4763C317.098 35.5872 316.471 34.88 315.643 34.3546C314.835 33.809 313.834 33.5362 312.642 33.5362C311.369 33.5362 310.328 33.809 309.52 34.3546C308.712 34.88 308.086 35.6074 307.641 36.5369C307.196 37.4462 306.883 38.4869 306.701 39.6589C306.54 40.8106 306.459 42.023 306.459 43.2961V44.1751C306.459 45.4481 306.54 46.6706 306.701 47.8426C306.863 49.0146 307.166 50.0552 307.611 50.9645C308.075 51.8738 308.712 52.5912 309.52 53.1165C310.328 53.6419 311.379 53.9046 312.672 53.9046ZM340.012 13.5619V60.1182H331.283V13.5619H340.012ZM338.769 42.5686H336.375C336.395 40.2853 336.698 38.1838 337.284 36.2641C337.87 34.3243 338.709 32.6471 339.8 31.2327C340.891 29.798 342.194 28.6866 343.71 27.8985C345.246 27.1105 346.943 26.7164 348.802 26.7164C350.419 26.7164 351.884 26.9488 353.197 27.4136C354.531 27.8581 355.672 28.5856 356.622 29.5959C357.592 30.586 358.34 31.8894 358.865 33.5059C359.39 35.1224 359.653 37.0825 359.653 39.3861V60.1182H350.863V39.3254C350.863 37.8706 350.651 36.7289 350.227 35.9004C349.822 35.0517 349.226 34.4556 348.438 34.1121C347.67 33.7484 346.721 33.5665 345.589 33.5665C344.336 33.5665 343.265 33.7989 342.376 34.2637C341.507 34.7284 340.81 35.375 340.285 36.2035C339.76 37.0118 339.376 37.9615 339.133 39.0527C338.891 40.1438 338.769 41.3158 338.769 42.5686Z" fill="white"/>
</svg>
