<svg width="441" height="117" viewBox="0 0 441 117" fill="none" xmlns="http://www.w3.org/2000/svg">
<rect width="441" height="117" rx="58.5" fill="white" fill-opacity="0.3"/>
<path d="M66.4949 90L77.7121 25.6998H85.7054L74.4882 90H66.4949ZM83.0557 90L94.3171 25.6998H102.31L91.0491 90H83.0557ZM108.891 51.5347H62.9177V44.0713H108.891V51.5347ZM105.534 71.8935H59.6056V64.4742H105.534V71.8935ZM151.507 22.1668V90H138.744V22.1668H151.507ZM159.986 66.594V65.6666C159.986 62.1631 160.487 58.9392 161.488 55.9951C162.489 53.0215 163.946 50.4454 165.86 48.2667C167.774 46.088 170.129 44.3952 172.926 43.1881C175.723 41.9515 178.932 41.3332 182.553 41.3332C186.174 41.3332 189.398 41.9515 192.225 43.1881C195.051 44.3952 197.421 46.088 199.335 48.2667C201.278 50.4454 202.75 53.0215 203.751 55.9951C204.752 58.9392 205.253 62.1631 205.253 65.6666V66.594C205.253 70.0681 204.752 73.292 203.751 76.2656C202.75 79.2097 201.278 81.7858 199.335 83.9939C197.421 86.1726 195.066 87.8655 192.269 89.0726C189.472 90.2797 186.263 90.8832 182.641 90.8832C179.02 90.8832 175.796 90.2797 172.97 89.0726C170.173 87.8655 167.803 86.1726 165.86 83.9939C163.946 81.7858 162.489 79.2097 161.488 76.2656C160.487 73.292 159.986 70.0681 159.986 66.594ZM172.705 65.6666V66.594C172.705 68.596 172.882 70.4656 173.235 72.2026C173.588 73.9397 174.148 75.4706 174.913 76.7955C175.708 78.0909 176.738 79.1067 178.004 79.8427C179.27 80.5787 180.816 80.9467 182.641 80.9467C184.408 80.9467 185.924 80.5787 187.19 79.8427C188.456 79.1067 189.472 78.0909 190.237 76.7955C191.003 75.4706 191.562 73.9397 191.916 72.2026C192.298 70.4656 192.49 68.596 192.49 66.594V65.6666C192.49 63.7235 192.298 61.8981 191.916 60.1905C191.562 58.4535 190.988 56.9225 190.193 55.5976C189.428 54.2433 188.412 53.1834 187.146 52.418C185.88 51.6525 184.349 51.2697 182.553 51.2697C180.757 51.2697 179.226 51.6525 177.96 52.418C176.724 53.1834 175.708 54.2433 174.913 55.5976C174.148 56.9225 173.588 58.4535 173.235 60.1905C172.882 61.8981 172.705 63.7235 172.705 65.6666ZM225.523 52.418V90H212.804V42.2165H224.728L225.523 52.418ZM223.668 64.4301H220.224C220.224 60.8971 220.68 57.7174 221.593 54.891C222.505 52.0352 223.786 49.6063 225.435 47.6043C227.083 45.5728 229.041 44.0271 231.308 42.9672C233.605 41.8779 236.166 41.3332 238.992 41.3332C241.23 41.3332 243.276 41.6571 245.131 42.3048C246.986 42.9525 248.576 43.983 249.901 45.3962C251.255 46.8094 252.285 48.6789 252.992 51.0048C253.728 53.3306 254.096 56.1717 254.096 59.5281V90H241.289V59.4839C241.289 57.3641 240.994 55.7154 240.406 54.5377C239.817 53.3601 238.948 52.5357 237.8 52.0647C236.681 51.5642 235.298 51.3139 233.649 51.3139C231.941 51.3139 230.454 51.6525 229.188 52.3296C227.952 53.0068 226.921 53.9489 226.097 55.156C225.302 56.3337 224.699 57.7174 224.286 59.3073C223.874 60.8971 223.668 62.6047 223.668 64.4301ZM285.76 90.8832C282.051 90.8832 278.724 90.2944 275.78 89.1168C272.835 87.9097 270.333 86.2462 268.272 84.1264C266.241 82.0066 264.68 79.5483 263.591 76.7513C262.501 73.925 261.957 70.9219 261.957 67.7422V65.9758C261.957 62.3545 262.472 59.0423 263.502 56.0393C264.533 53.0362 266.005 50.4307 267.919 48.2225C269.862 46.0144 272.217 44.3216 274.985 43.1439C277.752 41.9368 280.873 41.3332 284.347 41.3332C287.733 41.3332 290.736 41.8926 293.356 43.0114C295.976 44.1302 298.17 45.72 299.936 47.7809C301.732 49.8418 303.087 52.3149 303.999 55.2002C304.912 58.056 305.368 61.2357 305.368 64.7392V70.0387H267.389V61.5595H292.87V60.588C292.87 58.8215 292.547 57.2464 291.899 55.8626C291.281 54.4494 290.338 53.3306 289.072 52.5063C287.806 51.6819 286.187 51.2697 284.215 51.2697C282.536 51.2697 281.094 51.6378 279.887 52.3738C278.68 53.1098 277.693 54.1403 276.928 55.4652C276.192 56.79 275.632 58.3504 275.25 60.1463C274.896 61.9128 274.72 63.856 274.72 65.9758V67.7422C274.72 69.6559 274.985 71.4224 275.515 73.0417C276.074 74.661 276.854 76.0595 277.855 77.2371C278.886 78.4148 280.122 79.3275 281.565 79.9752C283.037 80.6229 284.7 80.9467 286.555 80.9467C288.852 80.9467 290.986 80.5051 292.959 79.6219C294.961 78.7092 296.683 77.3402 298.126 75.5148L304.308 82.2275C303.307 83.6701 301.938 85.0538 300.201 86.3787C298.494 87.7036 296.433 88.7929 294.019 89.6467C291.604 90.4711 288.852 90.8832 285.76 90.8832ZM326.036 22.1668V90H313.273V22.1668H326.036ZM350.723 84.6122L363.397 42.2165H377.044L357.833 97.1984C357.421 98.4055 356.861 99.701 356.155 101.085C355.478 102.468 354.55 103.779 353.373 105.015C352.224 106.281 350.767 107.312 349.001 108.107C347.263 108.901 345.129 109.299 342.597 109.299C341.39 109.299 340.404 109.225 339.638 109.078C338.873 108.931 337.96 108.725 336.9 108.46V99.1416C337.224 99.1416 337.563 99.1416 337.916 99.1416C338.269 99.171 338.608 99.1857 338.932 99.1857C340.61 99.1857 341.979 98.9944 343.039 98.6116C344.099 98.2289 344.952 97.6401 345.6 96.8451C346.248 96.0797 346.763 95.0787 347.146 93.8421L350.723 84.6122ZM345.423 42.2165L355.802 76.8397L357.612 90.3091L348.956 91.2365L331.777 42.2165H345.423Z" fill="white"/>
</svg>
