<svg width="356" height="80" viewBox="0 0 356 80" fill="none" xmlns="http://www.w3.org/2000/svg">
<rect width="356" height="80" rx="40" fill="white" fill-opacity="0.3"/>
<path d="M68.2964 51.0688L66.7445 62.1182H59.9162L61.4681 51.0688H55.3227L53.7708 62.1182H46.9426L48.4944 51.0688H42.7835L43.7146 44.4268H49.4876L50.2946 38.2813H44.5837L45.5148 31.5772H51.2257L52.7776 20.7141H60.0404L58.4885 31.5772H63.7649L65.3168 20.7141H72.5175L71.0277 31.5772H77.4214L76.4903 38.2813H70.0965L69.2275 44.4268H75.6212L74.6901 51.0688H68.2964ZM63.2683 38.2813H57.1229L56.3159 44.4268H62.3992L63.2683 38.2813ZM109.077 15.5619V62.1182H100.317V15.5619H109.077ZM114.896 46.0538V45.4173C114.896 43.0127 115.24 40.8001 115.927 38.7794C116.614 36.7385 117.614 34.9704 118.928 33.4751C120.241 31.9798 121.858 30.8179 123.777 29.9895C125.697 29.1408 127.899 28.7164 130.385 28.7164C132.87 28.7164 135.083 29.1408 137.023 29.9895C138.963 30.8179 140.589 31.9798 141.903 33.4751C143.236 34.9704 144.247 36.7385 144.934 38.7794C145.621 40.8001 145.964 43.0127 145.964 45.4173V46.0538C145.964 48.4382 145.621 50.6508 144.934 52.6917C144.247 54.7124 143.236 56.4805 141.903 57.996C140.589 59.4913 138.973 60.6532 137.053 61.4817C135.133 62.3101 132.931 62.7244 130.445 62.7244C127.96 62.7244 125.747 62.3101 123.807 61.4817C121.888 60.6532 120.261 59.4913 118.928 57.996C117.614 56.4805 116.614 54.7124 115.927 52.6917C115.24 50.6508 114.896 48.4382 114.896 46.0538ZM123.626 45.4173V46.0538C123.626 47.4279 123.747 48.711 123.989 49.9032C124.232 51.0954 124.616 52.1461 125.141 53.0554C125.687 53.9445 126.394 54.6417 127.263 55.1468C128.132 55.652 129.193 55.9046 130.445 55.9046C131.658 55.9046 132.698 55.652 133.567 55.1468C134.436 54.6417 135.133 53.9445 135.659 53.0554C136.184 52.1461 136.568 51.0954 136.811 49.9032C137.073 48.711 137.205 47.4279 137.205 46.0538V45.4173C137.205 44.0837 137.073 42.8308 136.811 41.6589C136.568 40.4667 136.174 39.4159 135.628 38.5066C135.103 37.5771 134.406 36.8497 133.537 36.3243C132.668 35.7989 131.617 35.5362 130.385 35.5362C129.152 35.5362 128.101 35.7989 127.233 36.3243C126.384 36.8497 125.687 37.5771 125.141 38.5066C124.616 39.4159 124.232 40.4667 123.989 41.6589C123.747 42.8308 123.626 44.0837 123.626 45.4173ZM159.876 36.3243V62.1182H151.147V29.3227H159.331L159.876 36.3243ZM158.603 44.5686H156.239C156.239 42.1438 156.552 39.9615 157.179 38.0216C157.805 36.0616 158.684 34.3945 159.816 33.0205C160.947 31.6262 162.291 30.5654 163.847 29.8379C165.423 29.0903 167.181 28.7164 169.121 28.7164C170.657 28.7164 172.061 28.9387 173.334 29.3833C174.607 29.8278 175.698 30.5351 176.608 31.505C177.537 32.4749 178.244 33.758 178.729 35.3544C179.235 36.9507 179.487 38.9006 179.487 41.2042V62.1182H170.697V41.1739C170.697 39.719 170.495 38.5874 170.091 37.7792C169.687 36.9709 169.091 36.4051 168.303 36.0818C167.535 35.7383 166.585 35.5665 165.454 35.5665C164.282 35.5665 163.261 35.7989 162.392 36.2637C161.544 36.7284 160.836 37.375 160.271 38.2035C159.725 39.0118 159.311 39.9615 159.028 41.0527C158.745 42.1438 158.603 43.3158 158.603 44.5686ZM206.887 29.3227H214.798V61.027C214.798 64.0176 214.132 66.5535 212.798 68.6348C211.484 70.7363 209.646 72.3226 207.281 73.3935C204.917 74.4847 202.169 75.0303 199.037 75.0303C197.663 75.0303 196.208 74.8484 194.672 74.4847C193.157 74.121 191.702 73.5552 190.308 72.7873C188.934 72.0195 187.782 71.0495 186.852 69.8775L190.702 64.7248C191.712 65.8968 192.884 66.8061 194.218 67.4527C195.551 68.1196 197.027 68.453 198.643 68.453C200.219 68.453 201.553 68.16 202.644 67.574C203.735 67.0082 204.574 66.1696 205.16 65.0582C205.746 63.9671 206.039 62.6435 206.039 61.0876V36.9002L206.887 29.3227ZM184.822 46.1144V45.4779C184.822 42.9723 185.125 40.699 185.731 38.6582C186.357 36.5971 187.236 34.829 188.368 33.3539C189.52 31.8788 190.914 30.7371 192.551 29.9289C194.187 29.1206 196.036 28.7164 198.097 28.7164C200.28 28.7164 202.109 29.1206 203.584 29.9289C205.059 30.7371 206.271 31.8889 207.221 33.3842C208.171 34.8593 208.908 36.6072 209.433 38.6278C209.979 40.6283 210.403 42.8207 210.706 45.2051V46.5994C210.403 48.8828 209.949 51.0045 209.343 52.9645C208.736 54.9246 207.938 56.6421 206.948 58.1172C205.958 59.5721 204.725 60.7037 203.25 61.512C201.795 62.3202 200.058 62.7244 198.037 62.7244C196.016 62.7244 194.187 62.3101 192.551 61.4817C190.934 60.6532 189.55 59.4913 188.398 57.996C187.246 56.5007 186.357 54.7427 185.731 52.722C185.125 50.7014 184.822 48.4988 184.822 46.1144ZM193.551 45.4779V46.1144C193.551 47.4683 193.682 48.7312 193.945 49.9032C194.208 51.0752 194.612 52.1158 195.157 53.0251C195.723 53.9142 196.42 54.6114 197.249 55.1165C198.097 55.6015 199.098 55.844 200.25 55.844C201.846 55.844 203.149 55.5106 204.16 54.8437C205.17 54.1567 205.928 53.2171 206.433 52.0249C206.938 50.8327 207.231 49.4587 207.312 47.9027V43.9321C207.271 42.6591 207.1 41.5174 206.796 40.5071C206.493 39.4765 206.069 38.5975 205.523 37.8701C204.978 37.1427 204.271 36.5769 203.402 36.1727C202.533 35.7686 201.502 35.5665 200.31 35.5665C199.158 35.5665 198.158 35.8292 197.309 36.3546C196.481 36.8598 195.784 37.5569 195.218 38.446C194.672 39.3351 194.258 40.3858 193.975 41.5982C193.692 42.7904 193.551 44.0837 193.551 45.4779ZM248.17 62.1182H239.38V26.4129C239.38 23.9275 239.865 21.8361 240.835 20.1387C241.825 18.4211 243.209 17.1279 244.987 16.259C246.786 15.3699 248.917 14.9254 251.383 14.9254C252.191 14.9254 252.969 14.986 253.717 15.1072C254.464 15.2083 255.192 15.3396 255.899 15.5013L255.808 22.0785C255.424 21.9775 255.02 21.9068 254.595 21.8664C254.171 21.826 253.676 21.8057 253.11 21.8057C252.06 21.8057 251.16 21.9876 250.413 22.3513C249.685 22.6948 249.13 23.2101 248.746 23.8971C248.362 24.5842 248.17 25.4228 248.17 26.4129V62.1182ZM254.717 29.3227V35.5059H234.5V29.3227H254.717ZM257.899 46.0538V45.4173C257.899 43.0127 258.243 40.8001 258.93 38.7794C259.617 36.7385 260.617 34.9704 261.931 33.4751C263.244 31.9798 264.861 30.8179 266.78 29.9895C268.7 29.1408 270.902 28.7164 273.388 28.7164C275.873 28.7164 278.086 29.1408 280.026 29.9895C281.966 30.8179 283.592 31.9798 284.906 33.4751C286.239 34.9704 287.25 36.7385 287.937 38.7794C288.624 40.8001 288.967 43.0127 288.967 45.4173V46.0538C288.967 48.4382 288.624 50.6508 287.937 52.6917C287.25 54.7124 286.239 56.4805 284.906 57.996C283.592 59.4913 281.976 60.6532 280.056 61.4817C278.136 62.3101 275.934 62.7244 273.448 62.7244C270.963 62.7244 268.75 62.3101 266.81 61.4817C264.891 60.6532 263.264 59.4913 261.931 57.996C260.617 56.4805 259.617 54.7124 258.93 52.6917C258.243 50.6508 257.899 48.4382 257.899 46.0538ZM266.629 45.4173V46.0538C266.629 47.4279 266.75 48.711 266.992 49.9032C267.235 51.0954 267.619 52.1461 268.144 53.0554C268.69 53.9445 269.397 54.6417 270.266 55.1468C271.135 55.652 272.196 55.9046 273.448 55.9046C274.661 55.9046 275.701 55.652 276.57 55.1468C277.439 54.6417 278.136 53.9445 278.662 53.0554C279.187 52.1461 279.571 51.0954 279.813 49.9032C280.076 48.711 280.208 47.4279 280.208 46.0538V45.4173C280.208 44.0837 280.076 42.8308 279.813 41.6589C279.571 40.4667 279.177 39.4159 278.631 38.5066C278.106 37.5771 277.409 36.8497 276.54 36.3243C275.671 35.7989 274.62 35.5362 273.388 35.5362C272.155 35.5362 271.104 35.7989 270.236 36.3243C269.387 36.8497 268.69 37.5771 268.144 38.5066C267.619 39.4159 267.235 40.4667 266.992 41.6589C266.75 42.8308 266.629 44.0837 266.629 45.4173ZM303.061 36.4758V62.1182H294.332V29.3227H302.546L303.061 36.4758ZM312.942 29.1105L312.791 37.2033C312.367 37.1427 311.851 37.0921 311.245 37.0517C310.659 36.9911 310.124 36.9608 309.639 36.9608C308.406 36.9608 307.335 37.1224 306.426 37.4458C305.537 37.7489 304.789 38.2035 304.183 38.8097C303.597 39.4159 303.152 40.1535 302.849 41.0223C302.566 41.8912 302.405 42.8814 302.364 43.9927L300.606 43.4472C300.606 41.3254 300.818 39.3755 301.243 37.5973C301.667 35.7989 302.283 34.2329 303.092 32.8992C303.92 31.5656 304.93 30.5351 306.123 29.8076C307.315 29.0802 308.679 28.7164 310.215 28.7164C310.699 28.7164 311.195 28.7569 311.7 28.8377C312.205 28.8983 312.619 28.9892 312.942 29.1105Z" fill="white"/>
</svg>
