<svg width="361" height="80" viewBox="0 0 361 80" fill="none" xmlns="http://www.w3.org/2000/svg">
<rect width="361" height="80" rx="40" fill="white" fill-opacity="0.3"/>
<path d="M68.2964 51.0688L66.7445 62.1182H59.9162L61.4681 51.0688H55.3227L53.7708 62.1182H46.9426L48.4944 51.0688H42.7835L43.7146 44.4268H49.4876L50.2946 38.2813H44.5837L45.5148 31.5772H51.2257L52.7776 20.7141H60.0404L58.4885 31.5772H63.7649L65.3168 20.7141H72.5175L71.0277 31.5772H77.4214L76.4903 38.2813H70.0965L69.2275 44.4268H75.6212L74.6901 51.0688H68.2964ZM63.2683 38.2813H57.1229L56.3159 44.4268H62.3992L63.2683 38.2813ZM108.41 36.3243V62.1182H99.6806V29.3227H107.864L108.41 36.3243ZM107.137 44.5686H104.773C104.773 42.1438 105.086 39.9615 105.712 38.0216C106.339 36.0616 107.218 34.3945 108.349 33.0205C109.481 31.6262 110.825 30.5654 112.381 29.8379C113.957 29.0903 115.715 28.7164 117.655 28.7164C119.19 28.7164 120.595 28.9387 121.868 29.3833C123.141 29.8278 124.232 30.5351 125.141 31.505C126.071 32.4749 126.778 33.758 127.263 35.3544C127.768 36.9507 128.021 38.9006 128.021 41.2042V62.1182H119.231V41.1739C119.231 39.719 119.029 38.5874 118.624 37.7792C118.22 36.9709 117.624 36.4051 116.836 36.0818C116.068 35.7383 115.119 35.5665 113.987 35.5665C112.815 35.5665 111.795 35.7989 110.926 36.2637C110.077 36.7284 109.37 37.375 108.804 38.2035C108.258 39.0118 107.844 39.9615 107.561 41.0527C107.278 42.1438 107.137 43.3158 107.137 44.5686ZM149.753 62.7244C147.207 62.7244 144.924 62.3202 142.903 61.512C140.882 60.6835 139.165 59.5418 137.75 58.0869C136.356 56.632 135.285 54.9448 134.537 53.0251C133.79 51.0853 133.416 49.0242 133.416 46.8419V45.6295C133.416 43.144 133.769 40.8708 134.477 38.8097C135.184 36.7486 136.194 34.9603 137.508 33.4448C138.841 31.9293 140.458 30.7674 142.357 29.9592C144.257 29.1307 146.399 28.7164 148.783 28.7164C151.107 28.7164 153.168 29.1004 154.966 29.8682C156.765 30.6361 158.27 31.7273 159.482 33.1417C160.715 34.5562 161.645 36.2536 162.271 38.2338C162.897 40.1939 163.211 42.3762 163.211 44.7808V48.418H137.144V42.5985H154.633V41.9316C154.633 40.7192 154.411 39.6382 153.966 38.6885C153.542 37.7185 152.895 36.9507 152.026 36.3849C151.157 35.8191 150.046 35.5362 148.692 35.5362C147.54 35.5362 146.55 35.7888 145.722 36.294C144.893 36.7991 144.216 37.5064 143.691 38.4157C143.186 39.325 142.802 40.3959 142.539 41.6285C142.297 42.8409 142.175 44.1746 142.175 45.6295V46.8419C142.175 48.1553 142.357 49.3677 142.721 50.4791C143.105 51.5905 143.64 52.5503 144.327 53.3585C145.035 54.1668 145.883 54.7932 146.873 55.2378C147.884 55.6823 149.025 55.9046 150.298 55.9046C151.875 55.9046 153.34 55.6015 154.693 54.9953C156.068 54.3689 157.25 53.4293 158.24 52.1765L162.483 56.7836C161.796 57.7737 160.857 58.7234 159.664 59.6327C158.492 60.542 157.078 61.2897 155.421 61.8757C153.764 62.4415 151.875 62.7244 149.753 62.7244ZM176.911 36.4758V62.1182H168.181V29.3227H176.395L176.911 36.4758ZM186.792 29.1105L186.64 37.2033C186.216 37.1427 185.701 37.0921 185.094 37.0517C184.508 36.9911 183.973 36.9608 183.488 36.9608C182.255 36.9608 181.184 37.1224 180.275 37.4458C179.386 37.7489 178.638 38.2035 178.032 38.8097C177.446 39.4159 177.002 40.1535 176.699 41.0223C176.416 41.8912 176.254 42.8814 176.214 43.9927L174.456 43.4472C174.456 41.3254 174.668 39.3755 175.092 37.5973C175.516 35.7989 176.133 34.2329 176.941 32.8992C177.77 31.5656 178.78 30.5351 179.972 29.8076C181.164 29.0802 182.528 28.7164 184.064 28.7164C184.549 28.7164 185.044 28.7569 185.549 28.8377C186.054 28.8983 186.469 28.9892 186.792 29.1105ZM202.614 55.753L209.888 29.3227H219.011L207.948 62.1182H202.432L202.614 55.753ZM197.613 29.3227L204.917 55.7834L205.069 62.1182H199.522L188.459 29.3227H197.613ZM221.042 46.0538V45.4173C221.042 43.0127 221.386 40.8001 222.073 38.7794C222.76 36.7385 223.76 34.9704 225.073 33.4751C226.387 31.9798 228.003 30.8179 229.923 29.9895C231.843 29.1408 234.045 28.7164 236.531 28.7164C239.016 28.7164 241.229 29.1408 243.169 29.9895C245.108 30.8179 246.735 31.9798 248.049 33.4751C249.382 34.9704 250.392 36.7385 251.08 38.7794C251.767 40.8001 252.11 43.0127 252.11 45.4173V46.0538C252.11 48.4382 251.767 50.6508 251.08 52.6917C250.392 54.7124 249.382 56.4805 248.049 57.996C246.735 59.4913 245.119 60.6532 243.199 61.4817C241.279 62.3101 239.077 62.7244 236.591 62.7244C234.106 62.7244 231.893 62.3101 229.953 61.4817C228.034 60.6532 226.407 59.4913 225.073 57.996C223.76 56.4805 222.76 54.7124 222.073 52.6917C221.386 50.6508 221.042 48.4382 221.042 46.0538ZM229.772 45.4173V46.0538C229.772 47.4279 229.893 48.711 230.135 49.9032C230.378 51.0954 230.762 52.1461 231.287 53.0554C231.833 53.9445 232.54 54.6417 233.409 55.1468C234.278 55.652 235.338 55.9046 236.591 55.9046C237.804 55.9046 238.844 55.652 239.713 55.1468C240.582 54.6417 241.279 53.9445 241.805 53.0554C242.33 52.1461 242.714 51.0954 242.956 49.9032C243.219 48.711 243.35 47.4279 243.35 46.0538V45.4173C243.35 44.0837 243.219 42.8308 242.956 41.6589C242.714 40.4667 242.32 39.4159 241.774 38.5066C241.249 37.5771 240.552 36.8497 239.683 36.3243C238.814 35.7989 237.763 35.5362 236.531 35.5362C235.298 35.5362 234.247 35.7989 233.378 36.3243C232.53 36.8497 231.833 37.5771 231.287 38.5066C230.762 39.4159 230.378 40.4667 230.135 41.6589C229.893 42.8308 229.772 44.0837 229.772 45.4173ZM276.873 54.2679V29.3227H285.603V62.1182H277.389L276.873 54.2679ZM277.843 47.539L280.42 47.4784C280.42 49.6607 280.167 51.6915 279.662 53.5707C279.157 55.4297 278.399 57.0463 277.389 58.4203C276.378 59.7742 275.105 60.835 273.57 61.6029C272.034 62.3505 270.225 62.7244 268.144 62.7244C266.548 62.7244 265.073 62.5021 263.719 62.0575C262.385 61.5928 261.233 60.8755 260.263 59.9055C259.314 58.9154 258.566 57.6525 258.021 56.1168C257.495 54.5608 257.232 52.6917 257.232 50.5094V29.3227H265.962V50.57C265.962 51.5399 266.073 52.3583 266.295 53.0251C266.538 53.692 266.871 54.2375 267.295 54.6619C267.72 55.0862 268.215 55.3893 268.781 55.5712C269.367 55.753 270.013 55.844 270.72 55.844C272.519 55.844 273.933 55.4803 274.964 54.7528C276.015 54.0254 276.752 53.0352 277.177 51.7824C277.621 50.5094 277.843 49.0949 277.843 47.539ZM310.002 53.0554C310.002 52.429 309.82 51.8633 309.457 51.3581C309.093 50.8529 308.416 50.3882 307.426 49.9638C306.456 49.5193 305.052 49.1151 303.213 48.7514C301.556 48.3877 300.01 47.933 298.575 47.3875C297.161 46.8217 295.928 46.1447 294.878 45.3567C293.847 44.5686 293.039 43.6391 292.453 42.5682C291.867 41.477 291.574 40.2343 291.574 38.84C291.574 37.466 291.867 36.1727 292.453 34.9603C293.059 33.7479 293.918 32.677 295.029 31.7475C296.161 30.7977 297.535 30.0602 299.151 29.5348C300.788 28.9892 302.627 28.7164 304.668 28.7164C307.517 28.7164 309.962 29.1711 312.003 30.0804C314.064 30.9897 315.64 32.2425 316.731 33.8389C317.843 35.415 318.398 37.2134 318.398 39.234H309.669C309.669 38.3854 309.487 37.6276 309.123 36.9608C308.78 36.2738 308.234 35.7383 307.487 35.3544C306.759 34.9502 305.809 34.7482 304.637 34.7482C303.668 34.7482 302.829 34.9199 302.122 35.2634C301.414 35.5867 300.869 36.0313 300.485 36.5971C300.121 37.1427 299.939 37.7489 299.939 38.4157C299.939 38.9208 300.04 39.3755 300.242 39.7796C300.465 40.1636 300.818 40.5172 301.303 40.8405C301.788 41.1638 302.415 41.4669 303.183 41.7498C303.971 42.0125 304.941 42.255 306.092 42.4772C308.457 42.9622 310.568 43.5987 312.427 44.3868C314.286 45.1546 315.761 46.2054 316.852 47.539C317.944 48.8524 318.489 50.5801 318.489 52.722C318.489 54.1769 318.166 55.5106 317.519 56.723C316.873 57.9354 315.943 58.9962 314.731 59.9055C313.518 60.7946 312.063 61.4918 310.366 61.9969C308.689 62.4819 306.8 62.7244 304.698 62.7244C301.647 62.7244 299.06 62.1788 296.939 61.0876C294.837 59.9965 293.241 58.6123 292.15 56.9351C291.079 55.2378 290.543 53.5 290.543 51.7218H298.818C298.858 52.914 299.161 53.8738 299.727 54.6013C300.313 55.3287 301.051 55.8541 301.94 56.1774C302.849 56.5007 303.829 56.6623 304.88 56.6623C306.012 56.6623 306.951 56.5108 307.699 56.2077C308.446 55.8844 309.012 55.46 309.396 54.9347C309.8 54.3891 310.002 53.7627 310.002 53.0554Z" fill="white"/>
</svg>
