<svg width="407" height="117" viewBox="0 0 407 117" fill="none" xmlns="http://www.w3.org/2000/svg">
<rect width="407" height="117" rx="58.5" fill="white" fill-opacity="0.3"/>
<path d="M67.4949 90L78.7121 25.6998H86.7054L75.4882 90H67.4949ZM84.0557 90L95.3171 25.6998H103.31L92.0491 90H84.0557ZM109.891 51.5347H63.9177V44.0713H109.891V51.5347ZM106.534 71.8935H60.6056V64.4742H106.534V71.8935ZM151.801 51.4022V108.371H139.082V42.2165H150.873L151.801 51.4022ZM182.052 65.5783V66.5057C182.052 69.9798 181.639 73.2036 180.815 76.1772C180.02 79.1508 178.843 81.7417 177.282 83.9498C175.722 86.1284 173.779 87.8361 171.453 89.0726C169.156 90.2797 166.507 90.8832 163.504 90.8832C160.589 90.8832 158.057 90.2944 155.908 89.1168C153.758 87.9391 151.948 86.2904 150.476 84.1706C149.033 82.0214 147.87 79.5336 146.987 76.7072C146.104 73.8808 145.426 70.8483 144.955 67.6098V65.1808C145.426 61.7067 146.104 58.5271 146.987 55.6418C147.87 52.7271 149.033 50.2098 150.476 48.0901C151.948 45.9408 153.744 44.2774 155.863 43.0997C158.013 41.9221 160.53 41.3332 163.415 41.3332C166.448 41.3332 169.112 41.9074 171.409 43.0556C173.734 44.2038 175.678 45.8525 177.238 48.0017C178.828 50.151 180.02 52.7124 180.815 55.686C181.639 58.6596 182.052 61.957 182.052 65.5783ZM169.289 66.5057V65.5783C169.289 63.5468 169.112 61.6773 168.759 59.9697C168.435 58.2327 167.905 56.7164 167.169 55.421C166.462 54.1256 165.52 53.1246 164.343 52.418C163.194 51.6819 161.796 51.3139 160.147 51.3139C158.41 51.3139 156.923 51.5936 155.687 52.153C154.48 52.7124 153.493 53.522 152.728 54.5819C151.962 55.6418 151.388 56.9078 151.006 58.3799C150.623 59.8519 150.387 61.5154 150.299 63.3702V69.5087C150.446 71.6874 150.858 73.6453 151.536 75.3823C152.213 77.0899 153.258 78.4442 154.671 79.4452C156.084 80.4462 157.939 80.9467 160.236 80.9467C161.914 80.9467 163.327 80.5787 164.475 79.8427C165.623 79.0772 166.551 78.032 167.257 76.7072C167.993 75.3823 168.509 73.8514 168.803 72.1143C169.127 70.3773 169.289 68.5077 169.289 66.5057ZM202.675 52.6388V90H189.957V42.2165H201.925L202.675 52.6388ZM217.072 41.9074L216.851 53.6987C216.233 53.6103 215.482 53.5367 214.599 53.4779C213.745 53.3895 212.965 53.3454 212.259 53.3454C210.463 53.3454 208.902 53.5809 207.577 54.052C206.282 54.4936 205.193 55.156 204.309 56.0393C203.456 56.9225 202.808 57.9971 202.366 59.2631C201.954 60.5291 201.719 61.9717 201.66 63.591L199.098 62.7961C199.098 59.7047 199.407 56.8636 200.026 54.2728C200.644 51.6525 201.542 49.3708 202.72 47.4276C203.927 45.4845 205.399 43.983 207.136 42.9231C208.873 41.8632 210.86 41.3332 213.098 41.3332C213.804 41.3332 214.526 41.3921 215.262 41.5099C215.998 41.5982 216.601 41.7307 217.072 41.9074ZM236.504 42.2165V90H223.741V42.2165H236.504ZM222.946 29.7627C222.946 27.9079 223.594 26.377 224.889 25.1699C226.184 23.9628 227.921 23.3592 230.1 23.3592C232.249 23.3592 233.972 23.9628 235.267 25.1699C236.592 26.377 237.254 27.9079 237.254 29.7627C237.254 31.6176 236.592 33.1485 235.267 34.3556C233.972 35.5627 232.249 36.1663 230.1 36.1663C227.921 36.1663 226.184 35.5627 224.889 34.3556C223.594 33.1485 222.946 31.6176 222.946 29.7627ZM275.234 79.5777V22.1668H288.041V90H276.515L275.234 79.5777ZM245.027 66.6824V65.7549C245.027 62.1042 245.439 58.792 246.264 55.8184C247.088 52.8154 248.295 50.2393 249.885 48.0901C251.475 45.9408 253.433 44.2774 255.758 43.0997C258.084 41.9221 260.734 41.3332 263.708 41.3332C266.505 41.3332 268.948 41.9221 271.039 43.0997C273.158 44.2774 274.954 45.9556 276.426 48.1342C277.928 50.2835 279.135 52.8301 280.048 55.7743C280.96 58.689 281.623 61.8834 282.035 65.3575V67.3889C281.623 70.7158 280.96 73.8072 280.048 76.663C279.135 79.5188 277.928 82.0214 276.426 84.1706C274.954 86.2904 273.158 87.9391 271.039 89.1168C268.919 90.2944 266.446 90.8832 263.619 90.8832C260.646 90.8832 257.996 90.2797 255.67 89.0726C253.374 87.8655 251.43 86.1726 249.841 83.9939C248.28 81.8153 247.088 79.2539 246.264 76.3097C245.439 73.3656 245.027 70.1564 245.027 66.6824ZM257.746 65.7549V66.6824C257.746 68.6549 257.893 70.495 258.187 72.2026C258.511 73.9102 259.026 75.4265 259.733 76.7513C260.469 78.0468 261.411 79.0625 262.559 79.7985C263.737 80.5051 265.165 80.8584 266.843 80.8584C269.022 80.8584 270.818 80.3726 272.231 79.4011C273.644 78.4001 274.719 77.031 275.455 75.294C276.22 73.5569 276.662 71.5549 276.78 69.2879V63.5027C276.691 61.6479 276.426 59.9844 275.985 58.5123C275.572 57.0108 274.954 55.7301 274.13 54.6702C273.335 53.6103 272.334 52.786 271.127 52.1971C269.949 51.6083 268.551 51.3139 266.931 51.3139C265.283 51.3139 263.87 51.6966 262.692 52.4621C261.514 53.1982 260.557 54.2139 259.821 55.5093C259.115 56.8047 258.585 58.3357 258.231 60.1022C257.908 61.8392 257.746 63.7235 257.746 65.7549ZM319.97 90.8832C316.261 90.8832 312.934 90.2944 309.99 89.1168C307.045 87.9097 304.543 86.2462 302.482 84.1264C300.451 82.0066 298.89 79.5483 297.801 76.7513C296.711 73.925 296.167 70.9219 296.167 67.7422V65.9758C296.167 62.3545 296.682 59.0423 297.712 56.0393C298.743 53.0362 300.215 50.4307 302.129 48.2225C304.072 46.0144 306.427 44.3216 309.195 43.1439C311.962 41.9368 315.083 41.3332 318.557 41.3332C321.943 41.3332 324.946 41.8926 327.566 43.0114C330.186 44.1302 332.38 45.72 334.146 47.7809C335.942 49.8418 337.297 52.3149 338.209 55.2002C339.122 58.056 339.578 61.2357 339.578 64.7392V70.0387H301.599V61.5595H327.08V60.588C327.08 58.8215 326.756 57.2464 326.109 55.8626C325.491 54.4494 324.548 53.3306 323.282 52.5063C322.016 51.6819 320.397 51.2697 318.425 51.2697C316.746 51.2697 315.304 51.6378 314.097 52.3738C312.89 53.1098 311.903 54.1403 311.138 55.4652C310.402 56.79 309.842 58.3504 309.46 60.1463C309.106 61.9128 308.93 63.856 308.93 65.9758V67.7422C308.93 69.6559 309.195 71.4224 309.725 73.0417C310.284 74.661 311.064 76.0595 312.065 77.2371C313.096 78.4148 314.332 79.3275 315.775 79.9752C317.247 80.6229 318.91 80.9467 320.765 80.9467C323.062 80.9467 325.196 80.5051 327.169 79.6219C329.171 78.7092 330.893 77.3402 332.336 75.5148L338.518 82.2275C337.517 83.6701 336.148 85.0538 334.411 86.3787C332.704 87.7036 330.643 88.7929 328.229 89.6467C325.814 90.4711 323.062 90.8832 319.97 90.8832Z" fill="white"/>
</svg>
