<svg width="253" height="80" viewBox="0 0 253 80" fill="none" xmlns="http://www.w3.org/2000/svg">
<rect width="253" height="80" rx="40" fill="white" fill-opacity="0.3"/>
<path d="M31.6378 58.1182L39.3365 13.9867H44.8227L37.1239 58.1182H31.6378ZM43.004 58.1182L50.7331 13.9867H56.2192L48.4902 58.1182H43.004ZM60.7354 31.7181H29.1826V26.5957H60.7354V31.7181ZM58.4319 45.691H26.9094V40.5989H58.4319V45.691ZM89.4997 31.6271V70.7272H80.7704V25.3227H88.8632L89.4997 31.6271ZM110.262 41.3567V41.9932C110.262 44.3776 109.979 46.5902 109.413 48.6311C108.868 50.672 108.06 52.4502 106.989 53.9657C105.918 55.461 104.584 56.633 102.988 57.4817C101.412 58.3101 99.593 58.7244 97.5319 58.7244C95.5314 58.7244 93.7936 58.3202 92.3186 57.512C90.8435 56.7037 89.6008 55.5721 88.5904 54.1172C87.6003 52.6421 86.8021 50.9347 86.1959 48.9948C85.5897 47.055 85.125 44.9737 84.8017 42.751V41.0839C85.125 38.6995 85.5897 36.5172 86.1959 34.5369C86.8021 32.5365 87.6003 30.8088 88.5904 29.3539C89.6008 27.8788 90.8334 26.7371 92.2882 25.9289C93.7633 25.1206 95.491 24.7164 97.4713 24.7164C99.5526 24.7164 101.381 25.1105 102.957 25.8985C104.554 26.6866 105.887 27.8182 106.958 29.2933C108.049 30.7684 108.868 32.5263 109.413 34.5672C109.979 36.6081 110.262 38.8713 110.262 41.3567ZM101.503 41.9932V41.3567C101.503 39.9624 101.381 38.6793 101.139 37.5073C100.917 36.3151 100.553 35.2745 100.048 34.3854C99.5627 33.4963 98.9161 32.8092 98.1078 32.3243C97.3197 31.8191 96.3599 31.5665 95.2283 31.5665C94.0361 31.5665 93.0157 31.7585 92.167 32.1424C91.3385 32.5263 90.6616 33.082 90.1362 33.8095C89.6109 34.5369 89.2168 35.4058 88.9541 36.4161C88.6914 37.4265 88.5298 38.5682 88.4692 39.8412V44.0543C88.5702 45.5496 88.8531 46.8933 89.3179 48.0855C89.7826 49.2575 90.5 50.187 91.4699 50.8741C92.4398 51.5611 93.7128 51.9046 95.2889 51.9046C96.4407 51.9046 97.4107 51.652 98.1987 51.1468C98.9868 50.6215 99.6233 49.9041 100.108 48.9948C100.613 48.0855 100.967 47.0348 101.169 45.8426C101.391 44.6504 101.503 43.3673 101.503 41.9932ZM124.417 32.4758V58.1182H115.688V25.3227H123.902L124.417 32.4758ZM134.298 25.1105L134.146 33.2033C133.722 33.1427 133.207 33.0921 132.601 33.0517C132.015 32.9911 131.479 32.9608 130.994 32.9608C129.762 32.9608 128.691 33.1224 127.781 33.4458C126.892 33.7489 126.145 34.2035 125.538 34.8097C124.952 35.4159 124.508 36.1535 124.205 37.0223C123.922 37.8912 123.76 38.8814 123.72 39.9927L121.962 39.4472C121.962 37.3254 122.174 35.3755 122.598 33.5973C123.023 31.7989 123.639 30.2329 124.447 28.8992C125.276 27.5656 126.286 26.5351 127.478 25.8076C128.67 25.0802 130.034 24.7164 131.57 24.7164C132.055 24.7164 132.55 24.7569 133.055 24.8377C133.56 24.8983 133.975 24.9892 134.298 25.1105ZM147.634 25.3227V58.1182H138.875V25.3227H147.634ZM138.329 16.7752C138.329 15.5022 138.774 14.4514 139.663 13.623C140.552 12.7945 141.744 12.3802 143.24 12.3802C144.715 12.3802 145.897 12.7945 146.786 13.623C147.695 14.4514 148.15 15.5022 148.15 16.7752C148.15 18.0482 147.695 19.099 146.786 19.9275C145.897 20.7559 144.715 21.1702 143.24 21.1702C141.744 21.1702 140.552 20.7559 139.663 19.9275C138.774 19.099 138.329 18.0482 138.329 16.7752ZM174.216 50.965V11.5619H183.006V58.1182H175.095L174.216 50.965ZM153.484 42.1144V41.4779C153.484 38.9723 153.767 36.699 154.333 34.6582C154.899 32.5971 155.727 30.829 156.818 29.3539C157.91 27.8788 159.253 26.7371 160.85 25.9289C162.446 25.1206 164.265 24.7164 166.305 24.7164C168.225 24.7164 169.902 25.1206 171.337 25.9289C172.792 26.7371 174.024 27.8889 175.035 29.3842C176.065 30.8593 176.894 32.6072 177.52 34.6278C178.147 36.6283 178.601 38.8207 178.884 41.2051V42.5994C178.601 44.8828 178.147 47.0045 177.52 48.9645C176.894 50.9246 176.065 52.6421 175.035 54.1172C174.024 55.5721 172.792 56.7037 171.337 57.512C169.882 58.3202 168.185 58.7244 166.245 58.7244C164.204 58.7244 162.385 58.3101 160.789 57.4817C159.213 56.6532 157.879 55.4913 156.788 53.996C155.717 52.5007 154.899 50.7427 154.333 48.722C153.767 46.7014 153.484 44.4988 153.484 42.1144ZM162.214 41.4779V42.1144C162.214 43.4683 162.315 44.7312 162.517 45.9032C162.739 47.0752 163.093 48.1158 163.578 49.0251C164.083 49.9142 164.729 50.6114 165.517 51.1165C166.326 51.6015 167.306 51.844 168.457 51.844C169.953 51.844 171.185 51.5106 172.155 50.8437C173.125 50.1567 173.863 49.2171 174.368 48.0249C174.893 46.8327 175.196 45.4587 175.277 43.9027V39.9321C175.217 38.6591 175.035 37.5174 174.732 36.5071C174.449 35.4765 174.024 34.5975 173.459 33.8701C172.913 33.1427 172.226 32.5769 171.398 32.1727C170.589 31.7686 169.629 31.5665 168.518 31.5665C167.387 31.5665 166.417 31.8292 165.608 32.3546C164.8 32.8598 164.143 33.5569 163.638 34.446C163.153 35.3351 162.79 36.3858 162.547 37.5982C162.325 38.7904 162.214 40.0837 162.214 41.4779ZM204.921 58.7244C202.374 58.7244 200.091 58.3202 198.07 57.512C196.05 56.6835 194.332 55.5418 192.918 54.0869C191.523 52.632 190.453 50.9448 189.705 49.0251C188.957 47.0853 188.583 45.0242 188.583 42.8419V41.6295C188.583 39.144 188.937 36.8708 189.644 34.8097C190.351 32.7486 191.362 30.9603 192.675 29.4448C194.009 27.9293 195.625 26.7674 197.525 25.9592C199.424 25.1307 201.566 24.7164 203.951 24.7164C206.274 24.7164 208.335 25.1004 210.134 25.8682C211.932 26.6361 213.438 27.7273 214.65 29.1417C215.883 30.5562 216.812 32.2536 217.439 34.2338C218.065 36.1939 218.378 38.3762 218.378 40.7808V44.418H192.312V38.5985H209.8V37.9316C209.8 36.7192 209.578 35.6382 209.134 34.6885C208.709 33.7185 208.063 32.9507 207.194 32.3849C206.325 31.8191 205.214 31.5362 203.86 31.5362C202.708 31.5362 201.718 31.7888 200.889 32.294C200.061 32.7991 199.384 33.5064 198.859 34.4157C198.353 35.325 197.969 36.3959 197.707 37.6285C197.464 38.8409 197.343 40.1746 197.343 41.6295V42.8419C197.343 44.1553 197.525 45.3677 197.889 46.4791C198.273 47.5905 198.808 48.5503 199.495 49.3585C200.202 50.1668 201.051 50.7932 202.041 51.2378C203.051 51.6823 204.193 51.9046 205.466 51.9046C207.042 51.9046 208.507 51.6015 209.861 50.9953C211.235 50.3689 212.417 49.4293 213.407 48.1765L217.651 52.7836C216.964 53.7737 216.024 54.7234 214.832 55.6327C213.66 56.542 212.245 57.2897 210.589 57.8757C208.932 58.4415 207.042 58.7244 204.921 58.7244Z" fill="white"/>
</svg>
