<svg width="473" height="117" viewBox="0 0 473 117" fill="none" xmlns="http://www.w3.org/2000/svg">
<rect width="473" height="117" rx="58.5" fill="white" fill-opacity="0.3"/>
<path d="M66.4949 90L77.7121 25.6998H85.7054L74.4882 90H66.4949ZM83.0557 90L94.3171 25.6998H102.31L91.0491 90H83.0557ZM108.891 51.5347H62.9177V44.0713H108.891V51.5347ZM105.534 71.8935H59.6056V64.4742H105.534V71.8935ZM163.917 76.7955C163.917 75.8828 163.652 75.0585 163.122 74.3224C162.592 73.5864 161.606 72.9092 160.163 72.291C158.75 71.6432 156.704 71.0544 154.024 70.5245C151.61 69.9945 149.358 69.3321 147.268 68.5372C145.207 67.7128 143.411 66.7265 141.88 65.5783C140.378 64.4301 139.201 63.0758 138.347 61.5154C137.493 59.9255 137.066 58.1149 137.066 56.0834C137.066 54.0814 137.493 52.1971 138.347 50.4307C139.23 48.6642 140.481 47.1038 142.101 45.7495C143.749 44.3657 145.751 43.2911 148.107 42.5256C150.491 41.7307 153.171 41.3332 156.144 41.3332C160.295 41.3332 163.858 41.9957 166.831 43.3205C169.834 44.6454 172.131 46.4708 173.721 48.7967C175.34 51.0931 176.15 53.7134 176.15 56.6575H163.431C163.431 55.421 163.166 54.3169 162.636 53.3454C162.136 52.3444 161.341 51.5642 160.251 51.0048C159.191 50.4159 157.808 50.1215 156.1 50.1215C154.687 50.1215 153.465 50.3718 152.435 50.8723C151.404 51.3433 150.609 51.9911 150.05 52.8154C149.52 53.6103 149.255 54.4936 149.255 55.4652C149.255 56.2012 149.402 56.8636 149.696 57.4525C150.02 58.0118 150.536 58.5271 151.242 58.9981C151.949 59.4692 152.861 59.9108 153.98 60.323C155.128 60.7057 156.542 61.059 158.22 61.3829C161.664 62.0895 164.741 63.0169 167.45 64.1651C170.158 65.2839 172.308 66.8148 173.897 68.758C175.487 70.6717 176.282 73.1889 176.282 76.3097C176.282 78.4295 175.811 80.3726 174.869 82.1391C173.927 83.9056 172.573 85.4513 170.806 86.7762C169.04 88.0716 166.92 89.0873 164.447 89.8234C162.003 90.5299 159.25 90.8832 156.188 90.8832C151.743 90.8832 147.974 90.0883 144.883 88.4985C141.821 86.9086 139.495 84.8919 137.905 82.4483C136.345 79.9752 135.565 77.4432 135.565 74.8524H147.621C147.68 76.5894 148.121 77.9879 148.946 79.0478C149.8 80.1077 150.874 80.8731 152.17 81.3442C153.494 81.8153 154.922 82.0508 156.453 82.0508C158.102 82.0508 159.471 81.83 160.56 81.3884C161.65 80.9173 162.474 80.299 163.033 79.5336C163.622 78.7386 163.917 77.826 163.917 76.7955ZM196.95 22.1668V90H184.231V22.1668H196.95ZM195.139 64.4301H191.651C191.68 61.1032 192.122 58.0413 192.975 55.2443C193.829 52.418 195.051 49.9743 196.641 47.9134C198.231 45.8231 200.13 44.2038 202.338 43.0556C204.575 41.9074 207.048 41.3332 209.757 41.3332C212.112 41.3332 214.247 41.6718 216.161 42.349C218.104 42.9967 219.767 44.0566 221.151 45.5287C222.564 46.9713 223.653 48.8703 224.419 51.2256C225.184 53.5809 225.567 56.4367 225.567 59.793V90H212.76V59.7047C212.76 57.5849 212.451 55.9215 211.833 54.7144C211.244 53.4779 210.375 52.6093 209.227 52.1088C208.108 51.5789 206.725 51.3139 205.076 51.3139C203.251 51.3139 201.69 51.6525 200.395 52.3296C199.129 53.0068 198.113 53.9489 197.348 55.156C196.582 56.3337 196.023 57.7174 195.669 59.3073C195.316 60.8971 195.139 62.6047 195.139 64.4301ZM261.029 79.2244V57.9382C261.029 56.4073 260.779 55.0971 260.279 54.0078C259.778 52.889 258.998 52.0205 257.938 51.4022C256.908 50.784 255.568 50.4748 253.919 50.4748C252.506 50.4748 251.284 50.7251 250.254 51.2256C249.223 51.6966 248.428 52.3885 247.869 53.3012C247.31 54.1844 247.03 55.2296 247.03 56.4367H234.311C234.311 54.4053 234.782 52.4768 235.724 50.6515C236.667 48.8261 238.036 47.2215 239.832 45.8378C241.627 44.4246 243.762 43.3205 246.235 42.5256C248.738 41.7307 251.535 41.3332 254.626 41.3332C258.336 41.3332 261.633 41.9515 264.518 43.1881C267.403 44.4246 269.67 46.2794 271.319 48.7525C272.997 51.2256 273.836 54.3169 273.836 58.0266V78.4737C273.836 81.094 273.998 83.2432 274.322 84.9213C274.646 86.5701 275.117 88.0127 275.735 89.2492V90H262.884C262.266 88.7046 261.795 87.0853 261.471 85.1422C261.177 83.1696 261.029 81.197 261.029 79.2244ZM262.708 60.8971L262.796 68.0955H255.686C254.008 68.0955 252.55 68.2869 251.314 68.6697C250.077 69.0524 249.061 69.5971 248.267 70.3037C247.472 70.9808 246.883 71.7757 246.5 72.6884C246.147 73.6011 245.97 74.6021 245.97 75.6914C245.97 76.7808 246.22 77.7671 246.721 78.6503C247.221 79.5041 247.943 80.1813 248.885 80.6818C249.827 81.1528 250.931 81.3884 252.197 81.3884C254.111 81.3884 255.774 81.0056 257.187 80.2402C258.6 79.4747 259.69 78.5325 260.455 77.4138C261.25 76.295 261.662 75.2351 261.692 74.2341L265.048 79.6219C264.577 80.829 263.929 82.0802 263.105 83.3757C262.31 84.6711 261.294 85.8929 260.058 87.0411C258.821 88.1599 257.335 89.0873 255.597 89.8234C253.86 90.5299 251.8 90.8832 249.415 90.8832C246.382 90.8832 243.629 90.2797 241.156 89.0726C238.713 87.8361 236.77 86.1432 235.327 83.9939C233.914 81.8153 233.207 79.3422 233.207 76.5747C233.207 74.0722 233.678 71.8493 234.62 69.9062C235.563 67.9631 236.946 66.3291 238.772 65.0042C240.626 63.6499 242.938 62.6342 245.705 61.957C248.473 61.2504 251.682 60.8971 255.332 60.8971H262.708ZM296.359 52.1088V90H283.596V42.2165H295.564L296.359 52.1088ZM294.593 64.4301H291.06C291.06 61.1032 291.457 58.0413 292.252 55.2443C293.076 52.418 294.269 49.9743 295.829 47.9134C297.419 45.8231 299.377 44.2038 301.703 43.0556C304.029 41.9074 306.723 41.3332 309.784 41.3332C311.904 41.3332 313.847 41.6571 315.614 42.3048C317.38 42.9231 318.897 43.9094 320.163 45.2637C321.458 46.5885 322.459 48.3256 323.166 50.4748C323.872 52.5946 324.226 55.1413 324.226 58.1149V90H311.507V59.5281C311.507 57.3494 311.212 55.6712 310.624 54.4936C310.035 53.3159 309.196 52.4916 308.106 52.0205C307.046 51.5494 305.766 51.3139 304.264 51.3139C302.615 51.3139 301.173 51.6525 299.936 52.3296C298.729 53.0068 297.728 53.9489 296.933 55.156C296.138 56.3337 295.55 57.7174 295.167 59.3073C294.784 60.8971 294.593 62.6047 294.593 64.4301ZM323.033 62.9727L318.484 63.5468C318.484 60.426 318.867 57.5261 319.633 54.8469C320.428 52.1677 321.591 49.8124 323.121 47.7809C324.682 45.7495 326.61 44.1743 328.907 43.0556C331.203 41.9074 333.853 41.3332 336.856 41.3332C339.152 41.3332 341.243 41.6718 343.127 42.349C345.011 42.9967 346.616 44.0419 347.941 45.4845C349.295 46.8977 350.325 48.7525 351.032 51.0489C351.768 53.3454 352.136 56.157 352.136 59.4839V90H339.373V59.4839C339.373 57.2758 339.079 55.5976 338.49 54.4494C337.931 53.2718 337.106 52.4621 336.017 52.0205C334.957 51.5494 333.691 51.3139 332.219 51.3139C330.688 51.3139 329.348 51.623 328.2 52.2413C327.052 52.8301 326.095 53.6545 325.33 54.7144C324.564 55.7743 323.99 57.0108 323.607 58.424C323.225 59.8078 323.033 61.324 323.033 62.9727ZM383.977 90.8832C380.267 90.8832 376.94 90.2944 373.996 89.1168C371.052 87.9097 368.55 86.2462 366.489 84.1264C364.457 82.0066 362.897 79.5483 361.808 76.7513C360.718 73.925 360.174 70.9219 360.174 67.7422V65.9758C360.174 62.3545 360.689 59.0423 361.719 56.0393C362.75 53.0362 364.222 50.4307 366.135 48.2225C368.079 46.0144 370.434 44.3216 373.201 43.1439C375.969 41.9368 379.09 41.3332 382.564 41.3332C385.95 41.3332 388.953 41.8926 391.573 43.0114C394.193 44.1302 396.387 45.72 398.153 47.7809C399.949 49.8418 401.303 52.3149 402.216 55.2002C403.129 58.056 403.585 61.2357 403.585 64.7392V70.0387H365.606V61.5595H391.087V60.588C391.087 58.8215 390.763 57.2464 390.116 55.8626C389.497 54.4494 388.555 53.3306 387.289 52.5063C386.023 51.6819 384.404 51.2697 382.431 51.2697C380.753 51.2697 379.311 51.6378 378.103 52.3738C376.896 53.1098 375.91 54.1403 375.145 55.4652C374.409 56.79 373.849 58.3504 373.466 60.1463C373.113 61.9128 372.936 63.856 372.936 65.9758V67.7422C372.936 69.6559 373.201 71.4224 373.731 73.0417C374.291 74.661 375.071 76.0595 376.072 77.2371C377.102 78.4148 378.339 79.3275 379.782 79.9752C381.254 80.6229 382.917 80.9467 384.772 80.9467C387.068 80.9467 389.203 80.5051 391.175 79.6219C393.177 78.7092 394.9 77.3402 396.342 75.5148L402.525 82.2275C401.524 83.6701 400.155 85.0538 398.418 86.3787C396.71 87.7036 394.65 88.7929 392.235 89.6467C389.821 90.4711 387.068 90.8832 383.977 90.8832Z" fill="white"/>
</svg>
