<svg width="251" height="80" viewBox="0 0 251 80" fill="none" xmlns="http://www.w3.org/2000/svg">
<rect width="251" height="80" rx="40" fill="white" fill-opacity="0.3"/>
<path d="M55.2964 48.0688L53.7445 59.1182H46.9162L48.4681 48.0688H42.3227L40.7708 59.1182H33.9426L35.4944 48.0688H29.7835L30.7146 41.4268H36.4876L37.2946 35.2813H31.5837L32.5148 28.5772H38.2257L39.7776 17.7141H47.0404L45.4885 28.5772H50.7649L52.3168 17.7141H59.5175L58.0277 28.5772H64.4214L63.4903 35.2813H57.0965L56.2275 41.4268H62.6212L61.6901 48.0688H55.2964ZM50.2683 35.2813H44.1229L43.3159 41.4268H49.3992L50.2683 35.2813ZM102.927 26.3227V32.5059H83.8315V26.3227H102.927ZM88.5599 18.2299H97.2892V49.2371C97.2892 50.1868 97.4104 50.9142 97.6529 51.4194C97.9156 51.9246 98.2995 52.2782 98.8047 52.4803C99.3098 52.6621 99.9464 52.753 100.714 52.753C101.26 52.753 101.745 52.7328 102.169 52.6924C102.614 52.6318 102.987 52.5712 103.291 52.5106L103.321 58.9363C102.573 59.1788 101.765 59.3707 100.896 59.5122C100.027 59.6536 99.0674 59.7244 98.0166 59.7244C96.097 59.7244 94.4198 59.4112 92.9851 58.7848C91.5707 58.1381 90.4795 57.1076 89.7117 55.6931C88.9438 54.2787 88.5599 52.4196 88.5599 50.1161V18.2299ZM117.112 26.3227V59.1182H108.352V26.3227H117.112ZM107.807 17.7752C107.807 16.5022 108.251 15.4514 109.14 14.623C110.03 13.7945 111.222 13.3802 112.717 13.3802C114.192 13.3802 115.374 13.7945 116.263 14.623C117.173 15.4514 117.627 16.5022 117.627 17.7752C117.627 19.0482 117.173 20.099 116.263 20.9275C115.374 21.7559 114.192 22.1702 112.717 22.1702C111.222 22.1702 110.03 21.7559 109.14 20.9275C108.251 20.099 107.807 19.0482 107.807 17.7752ZM133.055 33.4758V59.1182H124.326V26.3227H132.54L133.055 33.4758ZM142.936 26.1105L142.785 34.2033C142.36 34.1427 141.845 34.0921 141.239 34.0517C140.653 33.9911 140.117 33.9608 139.632 33.9608C138.4 33.9608 137.329 34.1224 136.419 34.4458C135.53 34.7489 134.783 35.2035 134.177 35.8097C133.591 36.4159 133.146 37.1535 132.843 38.0223C132.56 38.8912 132.398 39.8814 132.358 40.9927L130.6 40.4472C130.6 38.3254 130.812 36.3755 131.236 34.5973C131.661 32.7989 132.277 31.2329 133.085 29.8992C133.914 28.5656 134.924 27.5351 136.116 26.8076C137.309 26.0802 138.673 25.7164 140.208 25.7164C140.693 25.7164 141.188 25.7569 141.693 25.8377C142.199 25.8983 142.613 25.9892 142.936 26.1105ZM161.547 59.7244C159.001 59.7244 156.717 59.3202 154.696 58.512C152.676 57.6835 150.958 56.5418 149.544 55.0869C148.149 53.632 147.079 51.9448 146.331 50.0251C145.583 48.0853 145.209 46.0242 145.209 43.8419V42.6295C145.209 40.144 145.563 37.8708 146.27 35.8097C146.978 33.7486 147.988 31.9603 149.301 30.4448C150.635 28.9293 152.251 27.7674 154.151 26.9592C156.05 26.1307 158.192 25.7164 160.577 25.7164C162.9 25.7164 164.961 26.1004 166.76 26.8682C168.558 27.6361 170.064 28.7273 171.276 30.1417C172.509 31.5562 173.438 33.2536 174.065 35.2338C174.691 37.1939 175.004 39.3762 175.004 41.7808V45.418H148.938V39.5985H166.426V38.9316C166.426 37.7192 166.204 36.6382 165.76 35.6885C165.335 34.7185 164.689 33.9507 163.82 33.3849C162.951 32.8191 161.84 32.5362 160.486 32.5362C159.334 32.5362 158.344 32.7888 157.515 33.294C156.687 33.7991 156.01 34.5064 155.485 35.4157C154.979 36.325 154.595 37.3959 154.333 38.6285C154.09 39.8409 153.969 41.1746 153.969 42.6295V43.8419C153.969 45.1553 154.151 46.3677 154.515 47.4791C154.899 48.5905 155.434 49.5503 156.121 50.3585C156.828 51.1668 157.677 51.7932 158.667 52.2378C159.677 52.6823 160.819 52.9046 162.092 52.9046C163.668 52.9046 165.133 52.6015 166.487 51.9953C167.861 51.3689 169.043 50.4293 170.033 49.1765L174.277 53.7836C173.59 54.7737 172.65 55.7234 171.458 56.6327C170.286 57.542 168.871 58.2897 167.215 58.8757C165.558 59.4415 163.668 59.7244 161.547 59.7244ZM199.343 51.965V12.5619H208.133V59.1182H200.222L199.343 51.965ZM178.611 43.1144V42.4779C178.611 39.9723 178.894 37.699 179.46 35.6582C180.026 33.5971 180.854 31.829 181.945 30.3539C183.036 28.8788 184.38 27.7371 185.976 26.9289C187.573 26.1206 189.391 25.7164 191.432 25.7164C193.352 25.7164 195.029 26.1206 196.464 26.9289C197.919 27.7371 199.151 28.8889 200.162 30.3842C201.192 31.8593 202.021 33.6072 202.647 35.6278C203.273 37.6283 203.728 39.8207 204.011 42.2051V43.5994C203.728 45.8828 203.273 48.0045 202.647 49.9645C202.021 51.9246 201.192 53.6421 200.162 55.1172C199.151 56.5721 197.919 57.7037 196.464 58.512C195.009 59.3202 193.312 59.7244 191.372 59.7244C189.331 59.7244 187.512 59.3101 185.916 58.4817C184.34 57.6532 183.006 56.4913 181.915 54.996C180.844 53.5007 180.026 51.7427 179.46 49.722C178.894 47.7014 178.611 45.4988 178.611 43.1144ZM187.34 42.4779V43.1144C187.34 44.4683 187.441 45.7312 187.644 46.9032C187.866 48.0752 188.219 49.1158 188.704 50.0251C189.21 50.9142 189.856 51.6114 190.644 52.1165C191.453 52.6015 192.433 52.844 193.584 52.844C195.08 52.844 196.312 52.5106 197.282 51.8437C198.252 51.1567 198.99 50.2171 199.495 49.0249C200.02 47.8327 200.323 46.4587 200.404 44.9027V40.9321C200.343 39.6591 200.162 38.5174 199.859 37.5071C199.576 36.4765 199.151 35.5975 198.585 34.8701C198.04 34.1427 197.353 33.5769 196.524 33.1727C195.716 32.7686 194.756 32.5665 193.645 32.5665C192.513 32.5665 191.543 32.8292 190.735 33.3546C189.927 33.8598 189.27 34.5569 188.765 35.446C188.28 36.3351 187.916 37.3858 187.674 38.5982C187.452 39.7904 187.34 41.0837 187.34 42.4779Z" fill="white"/>
</svg>
