<svg width="200" height="80" viewBox="0 0 200 80" fill="none" xmlns="http://www.w3.org/2000/svg">
<rect x="1.66667" y="1.66667" width="196.667" height="76.6667" rx="38.3333" stroke="white" stroke-width="3.33333" stroke-dasharray="6.67 6.67"/>
<path d="M65.7978 43.7886H71.1655C71.0578 45.5479 70.5731 47.1097 69.7114 48.4741C68.8617 49.8385 67.6708 50.9036 66.1389 51.6696C64.619 52.4355 62.7879 52.8185 60.6456 52.8185C58.97 52.8185 57.468 52.5313 56.1396 51.9568C54.8111 51.3704 53.6742 50.5326 52.7287 49.4435C51.7952 48.3544 51.0831 47.0379 50.5924 45.4941C50.1017 43.9502 49.8563 42.2208 49.8563 40.3059V38.4927C49.8563 36.5778 50.1077 34.8484 50.6103 33.3046C51.125 31.7487 51.855 30.4262 52.8005 29.3371C53.7579 28.248 54.9009 27.4103 56.2293 26.8238C57.5578 26.2374 59.0418 25.9442 60.6815 25.9442C62.8597 25.9442 64.6968 26.3391 66.1928 27.129C67.7007 27.9189 68.8676 29.008 69.6934 30.3963C70.5312 31.7846 71.0339 33.3644 71.2014 35.1357H65.8158C65.7559 34.0825 65.5465 33.1909 65.1875 32.4608C64.8284 31.7188 64.2839 31.1623 63.5538 30.7913C62.8357 30.4083 61.8783 30.2168 60.6815 30.2168C59.7839 30.2168 59 30.3844 58.3297 30.7195C57.6595 31.0546 57.097 31.5632 56.6422 32.2454C56.1875 32.9276 55.8464 33.7893 55.619 34.8305C55.4035 35.8597 55.2958 37.0685 55.2958 38.4568V40.3059C55.2958 41.6583 55.3976 42.8491 55.601 43.8784C55.8045 44.8956 56.1156 45.7573 56.5345 46.4635C56.9654 47.1576 57.5159 47.6842 58.1861 48.0433C58.8683 48.3903 59.6881 48.5639 60.6456 48.5639C61.7706 48.5639 62.6981 48.3843 63.4281 48.0253C64.1582 47.6663 64.7147 47.1337 65.0977 46.4276C65.4926 45.7214 65.726 44.8418 65.7978 43.7886ZM79.8364 24.885V52.4595H74.6482V24.885H79.8364ZM89.5664 33.0353V52.4595H84.3783V33.0353H89.5664ZM84.0551 27.9728C84.0551 27.2188 84.3184 26.5965 84.845 26.1058C85.3716 25.6151 86.0777 25.3697 86.9634 25.3697C87.837 25.3697 88.5372 25.6151 89.0638 26.1058C89.6023 26.5965 89.8716 27.2188 89.8716 27.9728C89.8716 28.7268 89.6023 29.3491 89.0638 29.8398C88.5372 30.3305 87.837 30.5758 86.9634 30.5758C86.0777 30.5758 85.3716 30.3305 84.845 29.8398C84.3184 29.3491 84.0551 28.7268 84.0551 27.9728ZM101.864 48.7793C102.498 48.7793 103.06 48.6596 103.551 48.4202C104.042 48.1689 104.425 47.8218 104.7 47.379C104.987 46.9242 105.137 46.3917 105.149 45.7813H110.014C110.002 47.1456 109.637 48.3604 108.919 49.4256C108.201 50.4788 107.237 51.3105 106.029 51.9209C104.82 52.5193 103.467 52.8185 101.971 52.8185C100.463 52.8185 99.1469 52.5672 98.0219 52.0645C96.9088 51.5619 95.9813 50.8677 95.2393 49.9821C94.4973 49.0845 93.9408 48.0433 93.5698 46.8584C93.1987 45.6616 93.0132 44.381 93.0132 43.0167V42.496C93.0132 41.1197 93.1987 39.8391 93.5698 38.6543C93.9408 37.4575 94.4973 36.4163 95.2393 35.5306C95.9813 34.633 96.9088 33.9329 98.0219 33.4302C99.1349 32.9276 100.439 32.6762 101.935 32.6762C103.527 32.6762 104.921 32.9814 106.118 33.5918C107.327 34.2022 108.273 35.0758 108.955 36.2128C109.649 37.3378 110.002 38.6722 110.014 40.2161H105.149C105.137 39.5699 104.999 38.9834 104.736 38.4568C104.485 37.9302 104.114 37.5113 103.623 37.2002C103.144 36.877 102.552 36.7155 101.846 36.7155C101.092 36.7155 100.475 36.877 99.9966 37.2002C99.5179 37.5113 99.1469 37.9422 98.8836 38.4927C98.6203 39.0313 98.4348 39.6476 98.3271 40.3418C98.2313 41.024 98.1834 41.7421 98.1834 42.496V43.0167C98.1834 43.7706 98.2313 44.4947 98.3271 45.1889C98.4228 45.883 98.6023 46.4994 98.8656 47.0379C99.1409 47.5765 99.5179 48.0014 99.9966 48.3125C100.475 48.6237 101.098 48.7793 101.864 48.7793ZM118.182 24.8671V52.4595H113.012V24.8671H118.182ZM130.425 33.0353L121.988 42.6576L117.464 47.2354L115.579 43.5014L119.169 38.9415L124.214 33.0353H130.425ZM125.058 52.4595L119.313 43.4834L122.886 40.3597L131.018 52.4595H125.058Z" fill="white"/>
<g clip-path="url(#clip0_221_1232)">
<path d="M148.618 31.4858L159.021 41.134L148.618 50.7823L151.821 53.7461L165.45 41.134L151.821 28.522L148.618 31.4858Z" fill="white"/>
</g>
<defs>
<clipPath id="clip0_221_1232">
<rect width="50.4482" height="54.5146" fill="white" transform="translate(129.107 66.3579) rotate(-90)"/>
</clipPath>
</defs>
</svg>
