<svg width="300" height="120" viewBox="0 0 300 120" fill="none" xmlns="http://www.w3.org/2000/svg">
<rect x="2.5" y="2.5" width="295" height="115" rx="57.5" stroke="white" stroke-width="5" stroke-dasharray="10 10"/>
<path d="M82.9902 55.3254V61.6266H62.5248V55.3254H82.9902ZM64.9214 39.357V78.5645H56.8429V39.357H64.9214ZM88.7528 39.357V78.5645H80.7013V39.357H88.7528ZM94.0577 64.2925V63.727C94.0577 61.5907 94.3629 59.625 94.9732 57.8298C95.5836 56.0166 96.4722 54.4458 97.6391 53.1173C98.806 51.7889 100.242 50.7566 101.948 50.0206C103.653 49.2666 105.61 48.8896 107.818 48.8896C110.026 48.8896 111.992 49.2666 113.715 50.0206C115.439 50.7566 116.884 51.7889 118.051 53.1173C119.236 54.4458 120.133 56.0166 120.744 57.8298C121.354 59.625 121.659 61.5907 121.659 63.727V64.2925C121.659 66.4109 121.354 68.3766 120.744 70.1898C120.133 71.985 119.236 73.5558 118.051 74.9022C116.884 76.2307 115.448 77.2629 113.742 77.999C112.037 78.735 110.08 79.103 107.872 79.103C105.664 79.103 103.698 78.735 101.975 77.999C100.269 77.2629 98.824 76.2307 97.6391 74.9022C96.4722 73.5558 95.5836 71.985 94.9732 70.1898C94.3629 68.3766 94.0577 66.4109 94.0577 64.2925ZM101.813 63.727V64.2925C101.813 65.5133 101.921 66.6532 102.136 67.7124C102.352 68.7716 102.693 69.7051 103.159 70.5129C103.644 71.3028 104.272 71.9222 105.044 72.371C105.816 72.8198 106.759 73.0442 107.872 73.0442C108.949 73.0442 109.874 72.8198 110.645 72.371C111.417 71.9222 112.037 71.3028 112.503 70.5129C112.97 69.7051 113.311 68.7716 113.527 67.7124C113.76 66.6532 113.877 65.5133 113.877 64.2925V63.727C113.877 62.5422 113.76 61.4292 113.527 60.3879C113.311 59.3288 112.961 58.3952 112.477 57.5874C112.01 56.7616 111.39 56.1153 110.619 55.6486C109.847 55.1818 108.913 54.9484 107.818 54.9484C106.723 54.9484 105.789 55.1818 105.017 55.6486C104.263 56.1153 103.644 56.7616 103.159 57.5874C102.693 58.3952 102.352 59.3288 102.136 60.3879C101.921 61.4292 101.813 62.5422 101.813 63.727ZM134.181 55.4601V78.5645H126.398V49.4282H133.696L134.181 55.4601ZM133.104 62.973H130.949C130.949 60.9444 131.192 59.0774 131.676 57.372C132.179 55.6486 132.906 54.1585 133.858 52.9019C134.827 51.6273 136.021 50.6399 137.439 49.9398C138.857 49.2397 140.5 48.8896 142.367 48.8896C143.659 48.8896 144.844 49.0871 145.921 49.482C146.998 49.859 147.923 50.4604 148.695 51.2862C149.485 52.0941 150.095 53.1532 150.526 54.4637C150.957 55.7563 151.172 57.3091 151.172 59.1223V78.5645H143.417V59.984C143.417 58.6556 143.238 57.6323 142.878 56.9142C142.519 56.1961 142.008 55.6935 141.344 55.4062C140.697 55.119 139.916 54.9754 139.001 54.9754C137.995 54.9754 137.116 55.1818 136.362 55.5947C135.626 56.0076 135.015 56.5821 134.531 57.3181C134.046 58.0362 133.687 58.88 133.454 59.8494C133.22 60.8188 133.104 61.86 133.104 62.973ZM150.445 62.0844L147.672 62.4345C147.672 60.5316 147.905 58.7633 148.372 57.1296C148.857 55.496 149.566 54.0598 150.499 52.8211C151.451 51.5824 152.626 50.622 154.027 49.9398C155.427 49.2397 157.043 48.8896 158.874 48.8896C160.274 48.8896 161.549 49.0961 162.698 49.509C163.847 49.9039 164.825 50.5412 165.633 51.4209C166.459 52.2826 167.087 53.4135 167.518 54.8138C167.967 56.2141 168.191 57.9285 168.191 59.9571V78.5645H160.409V59.9571C160.409 58.6107 160.229 57.5874 159.87 56.8873C159.529 56.1692 159.026 55.6755 158.362 55.4062C157.716 55.119 156.944 54.9754 156.046 54.9754C155.113 54.9754 154.296 55.1639 153.596 55.5409C152.896 55.8999 152.312 56.4026 151.846 57.0488C151.379 57.6951 151.029 58.4491 150.795 59.3108C150.562 60.1546 150.445 61.0791 150.445 62.0844ZM187.606 79.103C185.344 79.103 183.316 78.744 181.52 78.0259C179.725 77.2899 178.199 76.2756 176.943 74.983C175.704 73.6905 174.752 72.1915 174.088 70.486C173.424 68.7626 173.092 66.9315 173.092 64.9927V63.9155C173.092 61.7074 173.406 59.6878 174.034 57.8567C174.663 56.0256 175.56 54.4368 176.727 53.0904C177.912 51.744 179.348 50.7117 181.036 49.9937C182.723 49.2576 184.626 48.8896 186.744 48.8896C188.809 48.8896 190.64 49.2307 192.238 49.9129C193.836 50.5951 195.173 51.5645 196.25 52.8211C197.345 54.0778 198.171 55.5857 198.728 57.345C199.284 59.0864 199.562 61.0252 199.562 63.1615V66.3929H176.404V61.2227H191.942V60.6303C191.942 59.5532 191.744 58.5927 191.349 57.749C190.972 56.8873 190.398 56.2051 189.626 55.7024C188.854 55.1998 187.866 54.9484 186.664 54.9484C185.64 54.9484 184.761 55.1728 184.025 55.6216C183.289 56.0704 182.687 56.6988 182.221 57.5066C181.772 58.3145 181.431 59.2659 181.197 60.361C180.982 61.4381 180.874 62.623 180.874 63.9155V64.9927C180.874 66.1595 181.036 67.2367 181.359 68.224C181.7 69.2114 182.176 70.0641 182.786 70.7822C183.414 71.5003 184.168 72.0568 185.048 72.4518C185.946 72.8467 186.96 73.0442 188.091 73.0442C189.491 73.0442 190.793 72.7749 191.995 72.2363C193.216 71.6798 194.266 70.845 195.146 69.732L198.916 73.8251C198.306 74.7047 197.471 75.5485 196.412 76.3563C195.37 77.1642 194.114 77.8284 192.642 78.349C191.17 78.8517 189.491 79.103 187.606 79.103Z" fill="white"/>
<g clip-path="url(#clip0_5_1383)">
<path d="M222.927 47.2287L238.532 61.7011L222.927 76.1734L227.731 80.6191L248.174 61.7011L227.731 42.783L222.927 47.2287Z" fill="white"/>
</g>
<defs>
<clipPath id="clip0_5_1383">
<rect width="75.6723" height="81.7719" fill="white" transform="translate(193.66 99.5371) rotate(-90)"/>
</clipPath>
</defs>
</svg>
