<svg width="300" height="120" viewBox="0 0 300 120" fill="none" xmlns="http://www.w3.org/2000/svg">
<rect x="2.5" y="2.5" width="295" height="115" rx="57.5" stroke="white" stroke-width="5" stroke-dasharray="10 10"/>
<path d="M99.4774 65.2137H89.4871V58.9125H99.4774C101.021 58.9125 102.278 58.6612 103.247 58.1585C104.217 57.6379 104.926 56.9199 105.375 56.0043C105.823 55.0887 106.048 54.0565 106.048 52.9076C106.048 51.7407 105.823 50.6546 105.375 49.6492C104.926 48.6439 104.217 47.8361 103.247 47.2257C102.278 46.6153 101.021 46.3101 99.4774 46.3101H92.2876V79.1895H84.2091V39.982H99.4774C102.547 39.982 105.177 40.5385 107.367 41.6516C109.575 42.7467 111.263 44.2636 112.43 46.2024C113.597 48.1413 114.18 50.3584 114.18 52.8537C114.18 55.3849 113.597 57.5751 112.43 59.4242C111.263 61.2732 109.575 62.7004 107.367 63.7058C105.177 64.7111 102.547 65.2137 99.4774 65.2137ZM127.456 37.8278V79.1895H119.674V37.8278H127.456ZM149.591 72.619V59.6396C149.591 58.7061 149.438 57.9072 149.133 57.243C148.828 56.5608 148.352 56.0312 147.706 55.6542C147.077 55.2772 146.261 55.0887 145.255 55.0887C144.394 55.0887 143.649 55.2413 143.02 55.5465C142.392 55.8337 141.907 56.2556 141.566 56.8121C141.225 57.3507 141.055 57.988 141.055 58.724H133.299C133.299 57.4853 133.586 56.3095 134.161 55.1964C134.735 54.0834 135.57 53.105 136.665 52.2613C137.76 51.3996 139.062 50.7264 140.57 50.2417C142.096 49.757 143.801 49.5146 145.686 49.5146C147.948 49.5146 149.959 49.8916 151.718 50.6456C153.477 51.3996 154.86 52.5306 155.865 54.0385C156.888 55.5465 157.4 57.4315 157.4 59.6935V72.1612C157.4 73.7589 157.499 75.0694 157.696 76.0927C157.894 77.098 158.181 77.9777 158.558 78.7317V79.1895H150.722C150.345 78.3996 150.058 77.4122 149.86 76.2274C149.681 75.0246 149.591 73.8218 149.591 72.619ZM150.614 61.4438L150.668 65.8331H146.332C145.309 65.8331 144.421 65.9498 143.667 66.1831C142.913 66.4165 142.293 66.7486 141.809 67.1795C141.324 67.5924 140.965 68.0771 140.731 68.6336C140.516 69.1901 140.408 69.8005 140.408 70.4647C140.408 71.129 140.561 71.7303 140.866 72.2689C141.171 72.7895 141.611 73.2024 142.186 73.5076C142.76 73.7948 143.433 73.9385 144.205 73.9385C145.372 73.9385 146.386 73.7051 147.248 73.2383C148.11 72.7716 148.774 72.1971 149.241 71.5149C149.725 70.8327 149.977 70.1865 149.995 69.5761L152.041 72.8613C151.754 73.5974 151.359 74.3603 150.856 75.1502C150.372 75.9401 149.752 76.6851 148.998 77.3853C148.244 78.0674 147.338 78.6329 146.279 79.0817C145.219 79.5126 143.963 79.728 142.509 79.728C140.66 79.728 138.981 79.36 137.473 78.624C135.983 77.87 134.798 76.8377 133.919 75.5272C133.057 74.1988 132.626 72.6908 132.626 71.0033C132.626 69.4774 132.913 68.122 133.488 66.9371C134.062 65.7523 134.906 64.756 136.019 63.9481C137.15 63.1223 138.559 62.503 140.247 62.0901C141.934 61.6592 143.891 61.4438 146.117 61.4438H150.614ZM171.591 75.9042L179.319 50.0532H187.64L175.927 83.5787C175.675 84.3148 175.334 85.1047 174.903 85.9484C174.49 86.7922 173.925 87.591 173.207 88.345C172.507 89.117 171.618 89.7453 170.541 90.23C169.482 90.7147 168.18 90.9571 166.636 90.9571C165.9 90.9571 165.299 90.9122 164.832 90.8224C164.365 90.7327 163.809 90.607 163.163 90.4454V84.7636C163.36 84.7636 163.566 84.7636 163.782 84.7636C163.997 84.7815 164.204 84.7905 164.401 84.7905C165.425 84.7905 166.259 84.6738 166.906 84.4404C167.552 84.2071 168.072 83.848 168.467 83.3633C168.862 82.8966 169.177 82.2862 169.41 81.5322L171.591 75.9042ZM168.36 50.0532L174.688 71.1649L175.792 79.378L170.514 79.9434L160.039 50.0532H168.36Z" fill="white"/>
<g clip-path="url(#clip0_5_1376)">
<path d="M222.927 47.2287L238.532 61.7011L222.927 76.1734L227.731 80.6191L248.174 61.7011L227.731 42.783L222.927 47.2287Z" fill="white"/>
</g>
<defs>
<clipPath id="clip0_5_1376">
<rect width="75.6723" height="81.7719" fill="white" transform="translate(193.66 99.5371) rotate(-90)"/>
</clipPath>
</defs>
</svg>
