<svg width="200" height="80" viewBox="0 0 200 80" fill="none" xmlns="http://www.w3.org/2000/svg">
<rect x="1.66667" y="1.66667" width="196.667" height="76.6667" rx="38.3333" stroke="white" stroke-width="3.33333" stroke-dasharray="6.67 6.67"/>
<path d="M64.613 45.6197C64.613 45.153 64.5412 44.7341 64.3976 44.3631C64.2659 43.9801 64.0146 43.633 63.6436 43.3218C63.2726 42.9987 62.7519 42.6816 62.0817 42.3704C61.4115 42.0592 60.5438 41.7361 59.4787 41.401C58.2938 41.018 57.1688 40.5871 56.1037 40.1084C55.0505 39.6297 54.117 39.0732 53.3032 38.4389C52.5013 37.7926 51.867 37.0446 51.4002 36.1949C50.9454 35.3451 50.718 34.3578 50.718 33.2328C50.718 32.1437 50.9574 31.1563 51.4361 30.2707C51.9149 29.373 52.5851 28.6071 53.4468 27.9728C54.3085 27.3265 55.3258 26.8298 56.4986 26.4828C57.6835 26.1357 58.982 25.9621 60.3942 25.9621C62.3211 25.9621 64.0026 26.3092 65.4388 27.0034C66.875 27.6975 67.988 28.649 68.7779 29.8578C69.5797 31.0665 69.9807 32.4488 69.9807 34.0047H64.6309C64.6309 33.2387 64.4694 32.5685 64.1462 31.9941C63.8351 31.4076 63.3563 30.9469 62.7101 30.6117C62.0758 30.2766 61.2739 30.1091 60.3045 30.1091C59.371 30.1091 58.593 30.2527 57.9707 30.5399C57.3484 30.8152 56.8816 31.1922 56.5704 31.6709C56.2593 32.1377 56.1037 32.6643 56.1037 33.2507C56.1037 33.6935 56.2114 34.0945 56.4268 34.4535C56.6542 34.8125 56.9893 35.1476 57.4321 35.4588C57.875 35.77 58.4195 36.0632 59.0658 36.3385C59.7121 36.6137 60.4601 36.883 61.3098 37.1463C62.734 37.5772 63.9847 38.0619 65.0618 38.6004C66.1509 39.139 67.0605 39.7434 67.7905 40.4136C68.5206 41.0838 69.0711 41.8438 69.4421 42.6935C69.8131 43.5433 69.9986 44.5067 69.9986 45.5838C69.9986 46.7208 69.7772 47.7381 69.3344 48.6357C68.8916 49.5333 68.2513 50.2933 67.4135 50.9156C66.5758 51.5379 65.5764 52.0107 64.4155 52.3338C63.2546 52.6569 61.9561 52.8185 60.5199 52.8185C59.2274 52.8185 57.9528 52.651 56.6961 52.3159C55.4395 51.9688 54.2965 51.4482 53.2672 50.754C52.25 50.0599 51.4361 49.1742 50.8258 48.0971C50.2154 47.02 49.9102 45.7454 49.9102 44.2733H55.3138C55.3138 45.0871 55.4395 45.7753 55.6908 46.3378C55.9421 46.9003 56.2952 47.3551 56.75 47.7022C57.2167 48.0492 57.7672 48.3006 58.4016 48.4562C59.0478 48.6117 59.7539 48.6895 60.5199 48.6895C61.4534 48.6895 62.2194 48.5579 62.8178 48.2946C63.4281 48.0313 63.8769 47.6663 64.1642 47.1995C64.4634 46.7327 64.613 46.2062 64.613 45.6197ZM82.8523 33.0353V36.6975H71.5425V33.0353H82.8523ZM74.343 28.2421H79.5132V46.6071C79.5132 47.1696 79.5851 47.6004 79.7287 47.8996C79.8843 48.1988 80.1116 48.4083 80.4108 48.528C80.7101 48.6357 81.087 48.6895 81.5418 48.6895C81.865 48.6895 82.1522 48.6776 82.4035 48.6536C82.6668 48.6177 82.8882 48.5818 83.0678 48.5459L83.0857 52.3518C82.6429 52.4954 82.1642 52.6091 81.6495 52.6929C81.1349 52.7766 80.5664 52.8185 79.9441 52.8185C78.8071 52.8185 77.8138 52.633 76.964 52.262C76.1263 51.879 75.48 51.2686 75.0252 50.4309C74.5704 49.5931 74.343 48.4921 74.343 47.1277V28.2421ZM96.2805 48.0792V39.4262C96.2805 38.8039 96.1788 38.2713 95.9753 37.8285C95.7719 37.3737 95.4547 37.0207 95.0239 36.7693C94.605 36.518 94.0604 36.3923 93.3902 36.3923C92.8158 36.3923 92.3191 36.4941 91.9002 36.6975C91.4813 36.889 91.1582 37.1703 90.9308 37.5413C90.7034 37.9003 90.5897 38.3252 90.5897 38.8159H85.4195C85.4195 37.9901 85.611 37.2062 85.994 36.4641C86.3769 35.7221 86.9335 35.0699 87.6635 34.5074C88.3936 33.9329 89.2612 33.4841 90.2666 33.1609C91.2838 32.8378 92.4208 32.6762 93.6775 32.6762C95.1854 32.6762 96.5259 32.9276 97.6987 33.4302C98.8716 33.9329 99.7932 34.6869 100.463 35.6922C101.146 36.6975 101.487 37.9542 101.487 39.4621V47.774C101.487 48.8391 101.552 49.7128 101.684 50.395C101.816 51.0652 102.007 51.6516 102.259 52.1543V52.4595H97.0345C96.7832 51.9329 96.5917 51.2746 96.46 50.4847C96.3404 49.6829 96.2805 48.881 96.2805 48.0792ZM96.9627 40.629L96.9986 43.5552H94.1083C93.4261 43.5552 92.8337 43.633 92.3311 43.7886C91.8284 43.9442 91.4155 44.1656 91.0924 44.4528C90.7692 44.7281 90.5299 45.0512 90.3743 45.4222C90.2307 45.7933 90.1588 46.2002 90.1588 46.643C90.1588 47.0858 90.2606 47.4867 90.464 47.8458C90.6675 48.1929 90.9607 48.4681 91.3437 48.6716C91.7267 48.8631 92.1755 48.9588 92.6901 48.9588C93.468 48.9588 94.1442 48.8032 94.7187 48.4921C95.2932 48.1809 95.736 47.7979 96.0471 47.3431C96.3703 46.8883 96.5378 46.4575 96.5498 46.0506L97.9142 48.2407C97.7227 48.7314 97.4594 49.2401 97.1243 49.7667C96.8011 50.2933 96.3882 50.7899 95.8856 51.2567C95.3829 51.7115 94.7785 52.0885 94.0724 52.3877C93.3663 52.6749 92.5285 52.8185 91.5591 52.8185C90.3264 52.8185 89.2074 52.5732 88.2021 52.0825C87.2087 51.5798 86.4188 50.8917 85.8324 50.018C85.2579 49.1323 84.9707 48.127 84.9707 47.002C84.9707 45.9847 85.1622 45.0812 85.5452 44.2913C85.9281 43.5014 86.4906 42.8371 87.2327 42.2986C87.9866 41.748 88.9261 41.3351 90.0511 41.0599C91.1761 40.7726 92.4807 40.629 93.9647 40.629H96.9627ZM110.642 37.272V52.4595H105.472V33.0353H110.337L110.642 37.272ZM116.495 32.9096L116.405 37.7028C116.154 37.6669 115.848 37.637 115.489 37.6131C115.142 37.5772 114.825 37.5592 114.538 37.5592C113.808 37.5592 113.173 37.655 112.635 37.8464C112.108 38.026 111.665 38.2953 111.306 38.6543C110.959 39.0133 110.696 39.4502 110.517 39.9648C110.349 40.4794 110.253 41.0659 110.229 41.7241L109.188 41.401C109.188 40.1443 109.314 38.9894 109.565 37.9362C109.816 36.8711 110.181 35.9435 110.66 35.1536C111.151 34.3637 111.749 33.7534 112.455 33.3225C113.161 32.8917 113.969 32.6762 114.879 32.6762C115.166 32.6762 115.459 32.7002 115.759 32.748C116.058 32.784 116.303 32.8378 116.495 32.9096ZM129.348 33.0353V36.6975H118.038V33.0353H129.348ZM120.839 28.2421H126.009V46.6071C126.009 47.1696 126.081 47.6004 126.225 47.8996C126.38 48.1988 126.608 48.4083 126.907 48.528C127.206 48.6357 127.583 48.6895 128.038 48.6895C128.361 48.6895 128.648 48.6776 128.9 48.6536C129.163 48.6177 129.384 48.5818 129.564 48.5459L129.582 52.3518C129.139 52.4954 128.66 52.6091 128.146 52.6929C127.631 52.7766 127.062 52.8185 126.44 52.8185C125.303 52.8185 124.31 52.633 123.46 52.262C122.622 51.879 121.976 51.2686 121.521 50.4309C121.066 49.5931 120.839 48.4921 120.839 47.1277V28.2421Z" fill="white"/>
<g clip-path="url(#clip0_221_1232)">
<path d="M148.618 31.4858L159.021 41.134L148.618 50.7823L151.821 53.7461L165.45 41.134L151.821 28.522L148.618 31.4858Z" fill="white"/>
</g>
<defs>
<clipPath id="clip0_221_1232">
<rect width="50.4482" height="54.5146" fill="white" transform="translate(129.107 66.3579) rotate(-90)"/>
</clipPath>
</defs>
</svg>
