<svg width="274" height="274" viewBox="0 0 274 274" fill="none" xmlns="http://www.w3.org/2000/svg">
<circle cx="135.85" cy="136.85" r="107.5" transform="rotate(-9.62905 135.85 136.85)" fill="white" stroke="white" stroke-width="5"/>
<path d="M170.56 53.3395C172.634 48.2212 178.496 45.7104 183.381 48.286C194.718 54.2626 204.828 62.3781 213.138 72.2157C223.605 84.6065 230.901 99.3573 234.396 115.196C237.891 131.035 237.482 147.486 233.202 163.131C228.922 178.776 220.901 193.145 209.831 205C198.76 216.854 184.972 225.837 169.656 231.175C154.339 236.513 137.954 238.045 121.914 235.64C105.873 233.234 90.659 226.963 77.5824 217.367C67.2003 209.748 58.4134 200.215 51.6766 189.313C48.7735 184.614 50.8782 178.596 55.8428 176.176C60.8074 173.756 66.7432 175.863 69.7629 180.487C74.9998 188.507 81.6497 195.544 89.415 201.242C99.8763 208.919 112.048 213.936 124.88 215.861C137.713 217.786 150.821 216.56 163.074 212.289C175.327 208.019 186.357 200.832 195.214 191.349C204.07 181.866 210.487 170.37 213.911 157.854C217.334 145.338 217.662 132.177 214.866 119.506C212.07 106.835 206.233 95.0344 197.86 85.1217C191.644 77.7636 184.17 71.6097 175.811 66.9327C170.992 64.2357 168.485 58.4577 170.56 53.3395Z" fill="url(#paint0_linear_8_179)"/>
<mask id="path-3-inside-1_8_179" fill="white">
<path d="M46.7456 136.744C41.2227 136.744 36.6939 132.255 37.2454 126.76C38.7768 111.5 43.8032 96.7501 51.9893 83.6762C60.1753 70.6023 71.2495 59.6387 84.308 51.5969C89.0106 48.7009 95.0263 50.8148 97.4384 55.7831C99.8504 60.7513 97.7346 66.6839 93.1058 69.6966C83.3923 76.0188 75.1334 84.3996 68.9405 94.2901C62.7477 104.181 58.8152 115.27 57.37 126.77C56.6813 132.249 52.2684 136.744 46.7456 136.744Z"/>
</mask>
<path d="M46.7456 136.744C41.2227 136.744 36.6939 132.255 37.2454 126.76C38.7768 111.5 43.8032 96.7501 51.9893 83.6762C60.1753 70.6023 71.2495 59.6387 84.308 51.5969C89.0106 48.7009 95.0263 50.8148 97.4384 55.7831C99.8504 60.7513 97.7346 66.6839 93.1058 69.6966C83.3923 76.0188 75.1334 84.3996 68.9405 94.2901C62.7477 104.181 58.8152 115.27 57.37 126.77C56.6813 132.249 52.2684 136.744 46.7456 136.744Z" fill="#1ED760" stroke="#1ED760" stroke-width="10" mask="url(#path-3-inside-1_8_179)"/>
<path d="M71.5457 137.033C66.1338 137.057 61.6612 132.671 62.3426 127.302C63.84 115.505 68.1289 104.182 74.9121 94.3006C81.6954 84.4188 90.7194 76.347 101.19 70.7092C105.956 68.1435 111.656 70.7407 113.579 75.7996C115.502 80.8585 112.897 86.4481 108.256 89.2312C101.466 93.3025 95.5936 98.8026 91.0702 105.392C86.5468 111.982 83.5251 119.438 82.1663 127.238C81.2375 132.57 76.9577 137.01 71.5457 137.033Z" fill="#1ED760"/>
<path d="M96.1304 138.562C91.2979 138.583 87.2854 134.654 88.1057 129.892C88.927 125.124 90.4385 120.486 92.6053 116.126C96.0753 109.145 101.13 103.071 107.365 98.391C113.601 93.7109 120.844 90.5537 128.517 89.1718C136.19 87.7898 144.08 88.2213 151.556 90.4318C159.033 92.6424 165.889 96.5706 171.577 101.903C177.265 107.235 181.627 113.824 184.315 121.142C187.002 128.46 187.942 136.306 187.057 144.052C186.505 148.889 185.251 153.604 183.348 158.051C181.447 162.494 175.942 163.61 171.899 160.964C167.855 158.318 166.855 152.9 168.33 148.298C168.977 146.277 169.428 144.19 169.67 142.067C170.245 137.032 169.635 131.932 167.887 127.175C166.14 122.418 163.305 118.136 159.608 114.67C155.911 111.204 151.454 108.651 146.595 107.214C141.735 105.777 136.607 105.496 131.619 106.395C126.632 107.293 121.923 109.345 117.87 112.387C113.817 115.429 110.532 119.377 108.276 123.915C107.325 125.829 106.569 127.825 106.013 129.874C104.748 134.538 100.963 138.541 96.1304 138.562Z" fill="#1ED760"/>
<path d="M153.956 74.127C155.341 69.1406 160.538 66.1671 165.313 68.1625C172.678 71.2406 179.524 75.483 185.581 80.7446C194.002 88.0606 200.685 97.1631 205.144 107.389C209.602 117.615 211.723 128.706 211.353 139.855C211.086 147.874 209.535 155.777 206.778 163.269C204.99 168.125 199.275 169.909 194.679 167.531C190.083 165.152 188.369 159.509 189.953 154.582C191.546 149.628 192.448 144.463 192.622 139.233C192.9 130.869 191.309 122.549 187.965 114.879C184.62 107.208 179.607 100.38 173.29 94.8924C169.339 91.4602 164.941 88.6062 160.227 86.4019C155.54 84.2095 152.571 79.1134 153.956 74.127Z" fill="#1ED760"/>
<circle cx="136.947" cy="137.946" r="22.5" transform="rotate(-9.62905 136.947 137.946)" fill="#1ED760"/>
<defs>
<linearGradient id="paint0_linear_8_179" x1="217.378" y1="61.1064" x2="52.4768" y2="160.171" gradientUnits="userSpaceOnUse">
<stop stop-color="#1ED760"/>
<stop offset="0.911458" stop-color="#AE6CF0"/>
</linearGradient>
</defs>
</svg>
