<svg width="238" height="51" viewBox="0 0 238 51" fill="none" xmlns="http://www.w3.org/2000/svg">
<path d="M23.536 29.224C24.368 28.616 25.12 27.88 25.792 27.016C26.464 26.12 27.024 25.672 27.472 25.672C27.952 25.672 28.192 26.376 28.192 27.784C28.192 29.16 27.792 30.472 26.992 31.72C26.224 32.936 25.2 33.96 23.92 34.792C21.296 36.52 18.192 37.384 14.608 37.384C10.256 37.384 6.88 36.296 4.48 34.12C2.08 31.944 0.88 28.92 0.88 25.048C0.88 20.28 2.032 15.752 4.336 11.464C5.104 10.056 5.968 8.76 6.928 7.576C6.192 6.712 5.6 5.816 5.152 4.888C4.736 3.928 4.528 3.208 4.528 2.728C4.528 1.864 4.848 1.432 5.488 1.432C5.936 1.464 6.448 1.768 7.024 2.344L8.512 3.784C8.896 4.168 9.296 4.488 9.712 4.744C12.88 2.056 16.288 0.711998 19.936 0.711998C23.616 0.711998 26 1.736 27.088 3.784C27.472 4.552 27.664 5.496 27.664 6.616C27.664 8.312 26.928 9.736 25.456 10.888C23.984 12.04 22 12.616 19.504 12.616C17.04 12.616 14.48 12.104 11.824 11.08C9.552 14.952 8.416 19 8.416 23.224C8.416 29.08 10.752 32.008 15.424 32.008C18.304 32.008 21.008 31.08 23.536 29.224ZM14.128 8.104C15.76 8.648 17.536 8.92 19.456 8.92C21.376 8.92 22.336 8.392 22.336 7.336C22.336 6.088 21.552 5.464 19.984 5.464C17.84 5.464 15.888 6.344 14.128 8.104ZM41.7678 20.872C41.7678 19.72 41.0798 19.144 39.7038 19.144C38.3598 19.144 37.0318 20.2 35.7198 22.312C34.4078 24.392 33.5918 26.52 33.2718 28.696C33.3358 29.432 33.3998 30.168 33.4638 30.904C33.5278 31.64 33.5598 32.36 33.5598 33.064C33.5598 34.76 32.9998 35.912 31.8798 36.52C31.3678 36.808 30.8718 37.08 30.3918 37.336C29.9438 37.592 29.4158 37.72 28.8078 37.72C28.1998 37.72 27.6558 37.32 27.1758 36.52C26.7278 35.688 26.5038 34.408 26.5038 32.68C26.5038 27.848 26.8558 23.656 27.5598 20.104C28.6478 14.6 30.8078 8.712 34.0398 2.44C34.4878 1.576 35.1438 1.16 36.0078 1.192C36.8718 1.192 37.5758 1.784 38.1198 2.968C38.6638 4.152 38.9198 5.144 38.8878 5.944C38.8878 6.744 38.7598 7.528 38.5038 8.296C38.2798 9.032 37.9758 9.768 37.5918 10.504C37.2398 11.208 36.8238 11.944 36.3438 12.712C35.8958 13.448 35.4478 14.248 34.9998 15.112L34.2798 18.568C35.5278 16.488 37.2078 15.096 39.3198 14.392C40.0878 14.136 40.9358 14.008 41.8638 14.008C44.0398 14.008 45.6878 14.504 46.8078 15.496C47.9278 16.456 48.4878 17.832 48.4878 19.624C48.4878 21.384 48.2478 23.176 47.7678 25C47.3198 26.824 46.9838 28.136 46.7598 28.936C46.5678 29.704 46.4718 30.344 46.4718 30.856C46.4718 31.368 46.6478 31.624 46.9998 31.624C47.4798 31.624 48.0718 31.32 48.7758 30.712C49.4798 30.104 50.1838 29.448 50.8878 28.744C51.5918 28.008 52.2318 27.336 52.8078 26.728C53.4158 26.12 53.8318 25.816 54.0558 25.816C54.5038 25.816 54.7278 26.36 54.7278 27.448C54.7278 29.688 53.6238 31.848 51.4158 33.928C47.7038 36.104 45.3358 37.192 44.3118 37.192C44.2158 37.192 44.1518 37.176 44.1198 37.144C41.5598 37.144 40.2798 35.096 40.2798 31C40.2798 29.24 40.4398 27.624 40.7598 26.152C41.1118 24.68 41.3678 23.608 41.5278 22.936C41.6878 22.264 41.7678 21.576 41.7678 20.872ZM81.787 25.672C82.363 25.672 82.651 26.408 82.651 27.88C82.651 28.68 82.315 29.656 81.643 30.808C80.971 31.928 80.091 32.968 79.003 33.928C77.947 34.856 76.763 35.624 75.451 36.232C74.139 36.84 72.859 37.144 71.611 37.144C69.915 37.144 68.779 35.656 68.203 32.68C67.371 34.056 66.283 35.192 64.939 36.088C63.595 36.952 61.787 37.384 59.515 37.384C57.275 37.384 55.467 36.68 54.091 35.272C52.715 33.864 52.043 32.152 52.075 30.136C52.075 24.696 53.883 20.408 57.499 17.272C59.035 15.96 60.459 15.096 61.771 14.68C63.115 14.264 64.523 14.056 65.995 14.056C67.467 14.056 68.667 14.312 69.595 14.824C70.043 13.896 70.555 13.432 71.131 13.432C72.251 13.432 73.307 13.928 74.299 14.92C75.323 15.88 75.835 16.792 75.835 17.656C75.387 18.712 74.731 19.976 73.867 21.448C73.611 22.92 73.483 24.984 73.483 27.64C73.483 30.296 73.819 31.624 74.491 31.624C75.323 31.624 77.339 29.96 80.539 26.632C81.115 25.992 81.531 25.672 81.787 25.672ZM59.131 28.552C59.131 31.016 60.043 32.248 61.867 32.248C63.819 32.216 65.435 31.176 66.715 29.128C67.163 28.424 67.531 27.56 67.819 26.536C67.819 22.952 68.139 19.88 68.779 17.32C66.187 17.832 63.931 19.08 62.011 21.064C60.091 23.048 59.131 25.544 59.131 28.552ZM106.557 22.408C106.557 21.352 105.949 20.824 104.733 20.824C103.901 20.824 102.973 21.64 101.949 23.272C100.925 24.872 100.189 26.6 99.7405 28.456V28.552C99.7405 29.64 99.9005 30.76 100.221 31.912C100.573 33.064 100.749 33.864 100.749 34.312C100.749 35.4 99.3885 36.472 96.6685 37.528C96.2525 37.688 95.8845 37.768 95.5645 37.768C94.7645 37.768 94.2045 37.352 93.8845 36.52C93.5965 35.688 93.4525 34.568 93.4525 33.16C93.4525 31.72 93.4845 30.376 93.5485 29.128C93.6445 27.848 93.7245 26.68 93.7885 25.624C93.8845 24.536 93.9645 23.592 94.0285 22.792C94.1245 21.96 94.1725 21.288 94.1725 20.776C94.1725 19.688 93.6765 19.144 92.6845 19.144C91.6925 19.144 90.5405 20.312 89.2285 22.648C87.9165 24.952 87.2605 26.792 87.2605 28.168C87.2605 29.512 87.4205 30.76 87.7405 31.912C88.0925 33.064 88.2685 33.864 88.2685 34.312C88.2685 35.4 86.9085 36.472 84.1885 37.528C83.7725 37.688 83.4045 37.768 83.0845 37.768C82.2845 37.768 81.7245 37.352 81.4045 36.52C81.1165 35.688 80.9725 34.408 80.9725 32.68C80.9725 28.136 81.1485 24.856 81.5005 22.84C81.9805 19.864 83.0685 17.048 84.7645 14.392C85.3405 13.496 85.9645 13.048 86.6365 13.048C87.6925 13.048 88.6685 13.912 89.5645 15.64C89.8205 16.088 90.0125 16.504 90.1405 16.888C91.6765 14.968 93.4845 14.008 95.5645 14.008C96.9405 14.008 98.1725 14.472 99.2605 15.4C100.349 16.296 100.893 17.432 100.893 18.808V19.336C102.845 16.904 105.229 15.688 108.045 15.688C109.773 15.688 111.085 16.136 111.981 17.032C112.877 17.928 113.325 19.032 113.325 20.344C113.325 21.656 113.229 22.84 113.037 23.896C112.845 24.952 112.621 25.944 112.365 26.872C112.141 27.8 111.933 28.632 111.741 29.368C111.549 30.072 111.453 30.632 111.453 31.048C111.453 31.432 111.581 31.624 111.837 31.624C112.317 31.624 112.909 31.32 113.613 30.712C114.317 30.104 115.021 29.448 115.725 28.744C116.429 28.008 117.069 27.336 117.645 26.728C118.253 26.12 118.669 25.816 118.893 25.816C119.341 25.816 119.565 26.36 119.565 27.448C119.565 29.688 118.429 31.864 116.157 33.976C113.917 36.088 111.517 37.144 108.957 37.144C106.653 37.144 105.501 35.048 105.501 30.856C105.501 29.8 105.677 28.344 106.029 26.488C106.381 24.632 106.557 23.272 106.557 22.408ZM128.327 31.768C130.823 31.768 133.239 30.776 135.575 28.792C136.439 28.056 137.143 27.384 137.687 26.776C138.231 26.136 138.647 25.816 138.935 25.816C139.383 25.816 139.607 26.264 139.607 27.16C139.607 28.056 139.367 29.064 138.887 30.184C138.407 31.272 137.607 32.344 136.487 33.4C133.735 35.992 129.959 37.288 125.159 37.288C121.351 37.288 118.759 35.912 117.383 33.16C116.903 32.2 116.663 30.824 116.663 29.032C116.663 27.24 117.015 25.384 117.719 23.464C118.423 21.512 119.351 19.832 120.503 18.424C121.687 17.016 123.047 15.928 124.583 15.16C126.119 14.36 127.751 13.96 129.479 13.96C131.239 13.96 132.583 14.392 133.511 15.256C134.471 16.12 134.951 17.24 134.951 18.616C134.951 19.992 134.599 21.128 133.895 22.024C133.223 22.888 132.343 23.624 131.255 24.232C130.167 24.808 128.951 25.336 127.607 25.816C126.295 26.264 124.999 26.776 123.719 27.352V28.552C123.751 29.704 124.231 30.52 125.159 31C126.087 31.48 127.143 31.736 128.327 31.768ZM127.511 18.232C125.847 18.232 124.695 20.168 124.055 24.04C124.727 23.592 125.351 23.192 125.927 22.84C126.535 22.488 127.063 22.152 127.511 21.832C128.471 21.128 128.967 20.328 128.999 19.432C128.999 18.632 128.503 18.232 127.511 18.232ZM147.91 37.144C143.334 37.176 140.214 35.464 138.55 32.008C137.974 30.792 137.686 29.272 137.686 27.448C137.686 25.592 137.846 23.624 138.166 21.544C138.806 17.384 140.038 13.544 141.862 10.024C142.79 8.232 143.83 6.696 144.982 5.416C147.51 2.6 150.326 1.208 153.43 1.24C154.806 1.24 155.878 1.624 156.646 2.392C157.446 3.128 157.846 4.2 157.846 5.608C157.846 7.016 157.43 8.44 156.598 9.88C155.766 11.288 154.694 12.76 153.382 14.296C152.102 15.8 150.678 17.384 149.11 19.048C147.542 20.712 146.006 22.52 144.502 24.472V26.392C144.502 28.184 144.886 29.496 145.654 30.328C146.422 31.16 147.318 31.576 148.342 31.576C151.094 31.576 153.526 30.216 155.638 27.496C156.502 26.376 157.158 25.816 157.606 25.816C158.054 25.816 158.278 26.36 158.278 27.448C158.278 28.536 157.974 29.656 157.366 30.808C156.79 31.928 156.022 32.968 155.062 33.928C154.102 34.856 152.998 35.624 151.75 36.232C150.502 36.84 149.222 37.144 147.91 37.144ZM150.502 11.368C151.174 10.536 151.702 9.784 152.086 9.112C152.47 8.44 152.662 7.752 152.662 7.048C152.662 6.312 152.406 5.944 151.894 5.944C150.774 5.944 149.526 7.096 148.15 9.4C146.806 11.704 145.798 14.728 145.126 18.472C146.214 16.808 147.206 15.416 148.102 14.296C149.03 13.176 149.83 12.2 150.502 11.368ZM174.832 32.92C172.304 35.896 169.264 37.384 165.712 37.384C162.192 37.384 159.552 36.488 157.792 34.696C156.032 32.872 155.168 30.616 155.2 27.928C155.168 24.12 156.368 20.84 158.8 18.088C161.232 15.336 164.416 13.96 168.352 13.96C170.144 13.96 171.584 14.184 172.672 14.632C174.56 15.4 175.504 16.12 175.504 16.792C175.504 17.304 174.176 17.576 171.52 17.608C168.896 17.608 166.688 18.52 164.896 20.344C163.136 22.136 162.256 24.408 162.256 27.16C162.256 28.6 162.672 29.816 163.504 30.808C164.368 31.768 165.568 32.248 167.104 32.248C168.672 32.248 169.968 31.928 170.992 31.288C168.72 29.752 167.584 27.528 167.584 24.616C167.552 23.08 168.096 21.688 169.216 20.44C170.368 19.16 171.824 18.52 173.584 18.52C175.376 18.488 176.656 18.968 177.424 19.96C178.192 20.952 178.576 22.232 178.576 23.8C178.576 25.336 178.208 26.968 177.472 28.696H177.76C179.168 28.664 180.384 28.168 181.408 27.208C181.792 26.824 182.112 26.488 182.368 26.2C182.656 25.912 182.944 25.768 183.232 25.768C183.68 25.768 183.904 26.296 183.904 27.352C183.904 29.304 183.328 30.776 182.176 31.768C181.024 32.728 179.744 33.208 178.336 33.208C176.96 33.208 175.792 33.112 174.832 32.92ZM174.4 27.352C174.944 26.2 175.216 25.08 175.216 23.992C175.216 22.904 174.864 22.36 174.16 22.36C173.872 22.36 173.632 22.568 173.44 22.984C173.248 23.4 173.152 23.8 173.152 24.184C173.152 25.464 173.568 26.52 174.4 27.352ZM210.975 25.672C211.551 25.672 211.839 26.408 211.839 27.88C211.839 28.68 211.503 29.656 210.831 30.808C210.159 31.928 209.279 32.968 208.191 33.928C207.135 34.856 205.951 35.624 204.639 36.232C203.327 36.84 202.047 37.144 200.799 37.144C199.039 37.144 197.887 35.704 197.343 32.824C195.423 35.864 192.575 37.384 188.799 37.384C186.495 37.384 184.655 36.68 183.279 35.272C181.903 33.864 181.231 32.152 181.263 30.136C181.263 24.696 183.071 20.408 186.687 17.272C189.183 15.128 191.775 14.056 194.463 14.056C195.679 14.056 196.639 14.152 197.343 14.344L198.447 14.632C199.759 8.456 201.279 4.328 203.007 2.248C203.583 1.544 204.159 1.192 204.734 1.192C205.663 1.192 206.527 1.832 207.327 3.112C208.031 4.168 208.383 5.08 208.383 5.848C208.383 6.616 208.271 7.368 208.047 8.104C207.823 8.84 207.535 9.528 207.182 10.168C206.863 10.776 206.495 11.384 206.079 11.992C205.663 12.568 205.247 13.16 204.831 13.768C203.903 17.224 203.215 21.096 202.767 25.384C202.639 26.6 202.575 27.576 202.575 28.312C202.575 30.52 202.943 31.624 203.679 31.624C204.511 31.624 206.527 29.96 209.727 26.632C210.303 25.992 210.719 25.672 210.975 25.672ZM188.319 28.552C188.319 31.016 189.231 32.248 191.055 32.248C192.143 32.248 193.231 31.832 194.319 31C195.439 30.168 196.303 28.776 196.911 26.824C196.975 23.944 197.311 20.776 197.919 17.32C195.359 17.832 193.119 19.08 191.199 21.064C189.279 23.048 188.319 25.544 188.319 28.552ZM222.352 33.496C220.752 35.704 218.608 36.808 215.92 36.808C213.744 36.808 212 36.36 210.688 35.464C209.408 34.536 208.768 33.08 208.768 31.096C208.768 30.264 208.88 29.496 209.104 28.792C209.36 28.088 209.76 27.224 210.304 26.2L211.696 14.824C212.688 14.056 214.032 13.672 215.728 13.672C217.168 13.672 217.984 14.632 218.176 16.552C218.24 17.128 218.272 17.816 218.272 18.616C218.272 19.384 218.144 20.2 217.888 21.064C216.608 25.48 215.984 28.44 216.016 29.944C216.016 31.096 216.688 31.672 218.032 31.672C219.376 31.672 220.368 31.24 221.008 30.376C221.648 29.512 222.192 28.44 222.64 27.16C223.472 23.608 224.24 20.68 224.944 18.376C225.68 16.072 226.144 14.696 226.336 14.248C226.656 13.48 227.264 13.08 228.16 13.048C229.056 13.08 229.904 13.72 230.704 14.968C231.504 16.184 231.904 17.128 231.904 17.8C231.84 20.04 230.448 25.688 227.728 34.744C229.808 33.112 231.872 31.112 233.92 28.744C234.624 27.912 235.216 27.224 235.696 26.68C236.176 26.104 236.56 25.816 236.848 25.816C237.296 25.816 237.52 26.328 237.52 27.352C237.52 29.368 236.384 31.72 234.112 34.408C231.872 37.096 229.12 39.192 225.856 40.696C225.472 41.976 225.056 43.192 224.608 44.344C224.16 45.496 223.584 46.504 222.88 47.368C221.344 49.224 219.008 50.152 215.872 50.152C213.76 50.152 211.952 49.544 210.448 48.328C208.976 47.112 208.24 45.592 208.24 43.768C208.24 42.744 208.576 41.928 209.248 41.32C209.952 40.712 210.896 40.2 212.08 39.784C213.296 39.4 214.704 39.048 216.304 38.728C217.904 38.44 219.616 38.072 221.44 37.624C221.888 35.704 222.192 34.328 222.352 33.496ZM215.824 46.456C217.328 46.456 218.688 45.144 219.904 42.52C218.752 42.744 217.728 42.904 216.832 43C215.936 43.128 215.168 43.24 214.528 43.336C213.248 43.528 212.624 43.864 212.656 44.344C212.656 44.952 213.008 45.464 213.712 45.88C214.448 46.296 215.152 46.488 215.824 46.456Z" fill="white"/>
</svg>
